<?xml version="1.0" encoding="utf-8"?>
<!-- Generator: Adobe Illustrator 27.0.0, SVG Export Plug-In . SVG Version: 6.00 Build 0)  -->
<svg version="1.1" id="Layer_1" xmlns="http://www.w3.org/2000/svg" xmlns:xlink="http://www.w3.org/1999/xlink" x="0px" y="0px"
	 viewBox="0 0 100 50" style="enable-background:new 0 0 100 50;" xml:space="preserve">
<style type="text/css">
	.st0{fill:#828282;}
</style>
<g>
	<path class="st0" d="M15.6,13.1c4.2,0,8.3,0,12.5,0c1.5,0,2.7,0.6,3.5,1.9c0.4,0.7,0.6,1.4,0.6,2.1c0,4.7,0,9.3,0,14
		c0,0.6,0,1.2,0,1.8c0,2-1.6,3.7-3.6,3.8c-0.2,0-0.4,0-0.5,0c-7.2,0-14.3,0-21.5,0c-1.9,0-3.5-1.2-3.9-3c-0.1-0.3-0.1-0.6-0.1-0.9
		c0-2.6,0-5.3,0-7.9c0-1.9,1.3-3.5,3.1-3.9c0.2,0.1,0.5,0,0.8,0c5.8,0,11.7,0,17.5,0c0.2,0,0.2,0.1,0.2,0.2c0,1.2,0,2.3,0,3.5
		c0,0.3,0,0.2-0.2,0.2c-5.4,0-10.8,0-16.2,0c-0.6,0-1.1,0.3-1.3,0.9c0,0.1-0.1,0.3-0.1,0.4c0,1.7,0,3.5,0,5.2c0,0.8,0.6,1.3,1.3,1.3
		c6.4,0,12.7,0,19.1,0c0.8,0,1.3-0.5,1.3-1.3c0-0.2,0-0.4,0-0.6c0-4.2,0-8.4,0-12.5c0-0.5-0.1-0.9-0.5-1.1c-0.2-0.2-0.5-0.2-0.8-0.3
		c-0.1,0-0.1,0-0.2,0c-8,0-16,0-23.9,0c-0.3,0-0.3,0-0.3-0.3c0-1.2,0-2.3,0-3.5c0-0.2,0-0.2,0.2-0.2C7,13.1,11.3,13.1,15.6,13.1z"/>
	<path class="st0" d="M91.5,26.4c0-0.8,0-1.6,0-2.4c0-0.1,0-0.2-0.2-0.2c-1.3,0-2.5,0-3.8,0c-0.1,0-0.2,0-0.2,0.2c0,1.6,0,3.2,0,4.8
		v0.1c0,0.4,0.2,0.6,0.5,0.7c0.4,0.1,0.7-0.1,0.9-0.4c0.1-0.2,0.1-0.5,0.1-0.7c0-0.5,0-1,0-1.4c0-0.1,0-0.2,0.2-0.2
		c0.4,0,0.8,0,1.2,0c0.1,0,0.1,0,0.1,0.1c0,0.7,0,1.4,0,2.1c-0.1,1.3-0.8,1.9-2,2.2c-0.7,0.1-1.4,0.1-2.1,0
		c-1.1-0.3-1.8-1.1-1.9-2.3c-0.1-0.7,0-1.5,0-2.2c0-0.9,0-1.8,0-2.7c0-0.2,0-0.2-0.2-0.2c-0.3,0-0.6,0-0.9,0c-0.1,0-0.1,0-0.1-0.1
		c0-0.4,0-0.8,0-1.2c0-0.1,0-0.1,0.1-0.1c1.1-0.1,1.7-0.7,2-1.7c0.2-0.5,0.3-1,0.3-1.6c0-0.1,0-0.2,0.2-0.2c0.5,0,1,0,1.5,0
		c0.1,0,0.2,0,0.2,0.2c0,1,0,2,0,3.1c0,0.2,0.1,0.2,0.2,0.2c0.8,0,1.7,0,2.5,0c1.1,0,1.7-0.4,2.2-1.4c0.3-0.6,0.4-1.2,0.4-1.8
		c0-0.1,0-0.2,0.2-0.2c0.5,0,1,0,1.5,0c0.1,0,0.2,0,0.2,0.2c0,0.9,0,1.8,0,2.7c0,0.2-0.1,0.4,0,0.5s0.4,0,0.5,0c0.5,0,1,0,1.5,0
		c0.2,0,0.2,0,0.2,0.2c0,0.4,0,0.7,0,1.1c0,0.1,0,0.2-0.2,0.2c-0.6,0-1.3,0-1.9,0c-0.1,0-0.2,0-0.2,0.2c0,1.6,0,3.2,0,4.8v0.1
		c0,0.4,0.2,0.6,0.5,0.7c0.4,0.1,0.7-0.1,0.9-0.4c0.1-0.3,0.1-0.6,0.1-1s0-0.8,0-1.2c0-0.1,0-0.2,0.1-0.2c0.4,0,0.8,0,1.2,0
		c0.1,0,0.1,0,0.1,0.1c0,0.7,0,1.4,0,2.1c-0.2,1.3-0.8,1.9-2,2.2c-0.7,0.1-1.5,0.2-2.2-0.1c-1-0.3-1.5-0.9-1.7-1.9
		c-0.1-0.4-0.1-0.9-0.1-1.3C91.5,27.4,91.5,26.9,91.5,26.4z"/>
	<path class="st0" d="M48.4,31c-1.1,0-2.1,0-3.2,0c-0.1,0-0.2,0-0.2-0.2c0-0.4,0-0.9,0-1.3c0-0.1,0-0.1,0.1-0.1c0.4,0,0.7,0,1.1,0
		c0.4-0.1,0.4-0.1,0.4-0.5c-0.1-0.6-0.3-1.1-0.4-1.7c0-0.1-0.1-0.1-0.2-0.1c-0.8,0-1.7,0-2.5,0c-0.3,0-0.7,0-1,0
		c-0.1,0-0.1,0-0.2,0.1c-0.1,0.5-0.3,1-0.4,1.6c-0.1,0.3,0,0.4,0.3,0.5c0.4,0.1,0.8,0.1,1.2,0.1c0.1,0,0.2,0,0.2,0.2
		c0,0.4,0,0.9,0,1.3c0,0.1,0,0.1-0.1,0.1c-1.7,0-3.4,0-5.1,0c-0.1,0-0.1,0-0.1-0.1c0-0.5,0-0.9,0-1.4c0-0.1,0-0.1,0.1-0.1
		c0.2,0,0.4,0,0.6,0c0.3,0,0.6-0.2,0.7-0.4c0.2-0.3,0.3-0.6,0.4-1c1-3,2-6,3-9c0-0.1,0.1-0.2,0.2-0.2c1.1,0,2.3,0,3.4,0
		c0.1,0,0.2,0,0.2,0.1c1,3.1,2.1,6.2,3.1,9.4c0.1,0.2,0.2,0.5,0.3,0.7c0.2,0.3,0.4,0.4,0.7,0.4c0.2,0,0.4,0,0.6,0
		c0.1,0,0.1,0,0.1,0.1c0,0.5,0,0.9,0,1.4c0,0.2-0.1,0.1-0.2,0.1C50.6,31,49.5,31,48.4,31z M44.2,21.5L44.2,21.5
		c-0.5,1.3-0.9,2.6-1.3,4c0.9,0,1.8,0,2.7,0C45.1,24.1,44.7,22.8,44.2,21.5z"/>
	<path class="st0" d="M66.3,23.3c0.2-0.3,0.5-0.5,0.7-0.6c1.5-1.2,4-0.6,4.9,1.1c0.5,1,0.6,2,0.6,3.1c0,0.7-0.1,1.5-0.4,2.1
		c-0.6,1.4-1.7,2.1-3.2,2.2c-0.8,0-1.5-0.1-2.1-0.5c-0.2-0.1-0.3-0.2-0.5-0.4c-0.2-0.1-0.3-0.3-0.4-0.5c-0.1,0.2-0.2,0.4-0.3,0.6
		c-0.1,0.2-0.1,0.4-0.2,0.5s-0.4,0-0.5,0c-0.4,0-0.9,0-1.3,0c-0.2,0-0.2,0-0.2-0.2c0-2.3,0-4.6,0-6.9c0-0.9,0-1.8,0-2.8
		c0-0.1,0-0.2,0-0.4c0-0.4-0.2-0.6-0.6-0.6c-0.3,0-0.5,0-0.8,0c-0.1,0-0.1,0-0.1-0.1c0-0.4,0-0.8,0-1.2c0-0.1,0-0.1,0.1-0.1
		c1.4,0,2.9,0,4.3,0c0.1,0,0.1,0.1,0.1,0.2c0,1.4,0,2.8,0,4.2C66.3,23.2,66.3,23.2,66.3,23.3z M66.3,26.6c0,0.4,0,0.8,0.1,1.2
		c0.1,0.5,0.2,1,0.5,1.4c0.5,0.6,1.4,0.6,1.8,0c0.2-0.3,0.3-0.6,0.4-0.9c0.2-1,0.2-2,0.1-3c-0.1-0.4-0.2-0.8-0.4-1.2
		c-0.5-0.6-1.4-0.6-1.9,0c-0.1,0.2-0.2,0.4-0.3,0.6C66.3,25.3,66.3,26,66.3,26.6z"/>
	<path class="st0" d="M55.5,29.8c-0.2,0.4-0.3,0.7-0.5,1c0,0.1-0.1,0.2-0.2,0.1c-0.6,0-1.1,0-1.7,0c-0.2,0-0.2,0-0.2-0.2
		c0-3.2,0-6.4,0-9.6c0-0.1,0-0.3,0-0.4c0-0.4-0.2-0.5-0.6-0.5c-0.3,0-0.5,0-0.8,0c-0.1,0-0.1,0-0.1-0.1c0-0.4,0-0.8,0-1.2
		c0-0.1,0-0.1,0.1-0.1c1.4,0,2.9,0,4.3,0c0.2,0,0.1,0.1,0.1,0.2c0,1.4,0,2.8,0,4.2c0,0.1,0,0.1,0,0.2l0,0c0.1-0.1,0.1-0.2,0.2-0.2
		c0.5-0.5,1.1-0.9,1.8-1c1.3-0.2,2.9,0.3,3.6,1.9c0.5,0.9,0.6,1.9,0.5,3c0,0.7-0.1,1.4-0.4,2.1c-0.6,1.4-1.7,2.1-3.1,2.2
		c-0.8,0-1.5-0.1-2.1-0.5C56,30.5,55.7,30.2,55.5,29.8z M56,26.6c0,0.2,0,0.5,0,0.7c0,0.6,0.1,1.2,0.4,1.7c0.2,0.4,0.6,0.6,1,0.6
		c0.5,0,0.8-0.2,1-0.6c0.1-0.2,0.2-0.4,0.3-0.7c0.2-1,0.2-1.9,0.1-2.9c0-0.4-0.1-0.8-0.4-1.2c-0.2-0.4-0.6-0.6-1-0.6
		c-0.5,0-0.8,0.2-1,0.6c-0.1,0.1-0.1,0.3-0.2,0.5C56,25.3,55.9,26,56,26.6z"/>
	<path class="st0" d="M78.1,22.1c0.8,0,1.5,0.1,2.3,0.4c1.2,0.5,1.9,1.4,2.3,2.6c0.3,1.1,0.3,2.2,0,3.3c-0.4,1.2-1.2,2-2.3,2.5
		c-1.5,0.6-3.1,0.6-4.6-0.1c-1.3-0.6-2.1-1.7-2.3-3.2c-0.1-0.9-0.1-1.8,0.2-2.6c0.5-1.5,1.6-2.4,3.2-2.7
		C77.2,22.1,77.7,22.1,78.1,22.1z M79.6,26.7c0-0.3,0-0.5,0-0.8c0-0.5-0.1-0.9-0.2-1.4c-0.2-0.6-0.6-1-1.2-1c-0.7,0-1.1,0.3-1.3,1
		c-0.2,0.7-0.2,1.4-0.2,2.1s0,1.5,0.2,2.2s0.7,1.1,1.5,1c0.6-0.1,0.9-0.5,1-1C79.6,28.1,79.6,27.4,79.6,26.7z"/>
</g>
</svg>
