<?xml version="1.0" encoding="utf-8"?>
<!-- Generator: Adobe Illustrator 27.0.0, SVG Export Plug-In . SVG Version: 6.00 Build 0)  -->
<svg version="1.1" id="Layer_1" xmlns="http://www.w3.org/2000/svg" xmlns:xlink="http://www.w3.org/1999/xlink" x="0px" y="0px"
	 viewBox="0 0 100 50" style="enable-background:new 0 0 100 50;" xml:space="preserve">
<style type="text/css">
	.st0{fill:#828282;}
</style>
<g>
	<path class="st0" d="M0.7,33.6c0.1-0.1,0.1-0.2,0.2-0.3c2.9-5.6,5.7-11.2,8.6-16.8c0.1-0.2,0.2-0.3,0.5-0.3c1.1,0,2.1,0,3.2,0
		c0.2,0,0.3,0.1,0.4,0.2c2.9,5.7,5.8,11.3,8.7,17c0,0.1,0.1,0.1,0.1,0.2c-0.1,0-0.2,0-0.3,0c-1.4,0-2.9,0-4.3,0
		c-0.2,0-0.3-0.1-0.4-0.3c-1.9-3.8-3.8-7.6-5.7-11.4c-0.1-0.1-0.1-0.2-0.2-0.4c-0.9,1.8-1.8,3.6-2.7,5.4c0.3,0,0.5,0,0.7,0
		c0.9,0,1.8,0,2.7,0c0.1,0,0.2,0.1,0.3,0.1c0.6,1.2,1.1,2.3,1.7,3.5c-0.2,0-0.3,0-0.4,0c-2.2,0-4.3,0-6.5,0c-0.2,0-0.4,0.1-0.5,0.3
		c-0.4,0.8-0.8,1.6-1.2,2.4c-0.1,0.2-0.2,0.2-0.4,0.2c-1.5,0-3,0-4.5,0C0.7,33.7,0.7,33.7,0.7,33.6z"/>
	<path class="st0" d="M92.7,15.9c0.5,0.1,1,0.1,1.5,0.2c1.6,0.2,3.2,0.6,4.7,1.4c-0.4,1.2-0.9,2.4-1.4,3.6c-0.8-0.5-1.7-0.8-2.6-1
		c-1.4-0.3-2.8-0.5-4.2-0.4c-0.4,0-0.9,0.2-1.3,0.3c-0.4,0.2-0.7,0.5-0.7,1c0,0.5,0.2,0.9,0.7,1c0.7,0.3,1.4,0.5,2.2,0.7
		c1.3,0.4,2.7,0.7,4,1.1c1,0.3,1.9,1,2.6,1.8c0.8,1,1,2.2,0.9,3.4c-0.1,1.3-0.6,2.5-1.6,3.4c-0.9,0.8-2.1,1.2-3.3,1.5
		c-1.6,0.3-3.2,0.2-4.9,0c-1.8-0.2-3.6-0.7-5.2-1.4c-0.5-0.2-0.5-0.2-0.3-0.7c0.4-1.1,0.8-2.1,1.1-3.2c0.6,0.3,1.2,0.5,1.8,0.8
		c2,0.7,4,1,6.1,0.9c0.3,0,0.7-0.1,1-0.2c0.5-0.2,0.8-0.5,0.8-1c0.1-0.6-0.2-1-0.7-1.3c-0.6-0.3-1.3-0.5-2-0.7
		c-1.3-0.4-2.6-0.6-3.9-1c-1-0.3-1.9-0.8-2.6-1.5c-0.8-0.8-1.1-1.8-1.1-2.9c-0.2-2.9,1.7-4.6,3.9-5.2c0.6-0.2,1.3-0.3,1.9-0.4
		c0.1,0,0.1,0,0.2-0.1C91.4,15.9,92.1,15.9,92.7,15.9z"/>
	<path class="st0" d="M48.2,33.7c0-5.8,0-11.6,0-17.5c0.1,0,0.2,0,0.3,0c3.2,0,6.4,0,9.5,0c1.2,0,2.4,0.2,3.5,0.8
		c1.8,1,2.4,2.7,2.2,4.5c-0.1,1.3-0.7,2.3-1.9,3c0,0-0.1,0-0.1,0.1c0.1,0,0.2,0.1,0.2,0.1c1.5,0.7,2.3,1.9,2.5,3.5
		c0.2,1.6-0.3,2.9-1.5,4c-0.9,0.8-1.9,1.1-3,1.3c-0.6,0.1-1.3,0.1-1.9,0.1c-3.2,0-6.3,0-9.5,0C48.4,33.7,48.3,33.7,48.2,33.7z
		 M52.5,30.1c0.6,0,1.1,0,1.6,0c1.5,0,2.9,0,4.4,0c1.1,0,1.9-1.1,1.6-2.2c-0.2-0.8-0.9-1.3-1.8-1.3c-1.8,0-3.6,0-5.5,0
		c-0.1,0-0.2,0-0.3,0C52.5,27.7,52.5,28.9,52.5,30.1z M52.5,23c0.1,0,0.1,0,0.2,0c1.8,0,3.6,0,5.4,0c0.2,0,0.4,0,0.6-0.1
		c0.7-0.2,1.1-0.9,1-1.7c-0.1-0.8-0.7-1.3-1.5-1.3c-1.8,0-3.7,0-5.5,0c-0.1,0-0.1,0-0.2,0C52.5,21,52.5,22,52.5,23z"/>
	<path class="st0" d="M35.3,24.4c1.4,0,2.7,0,4.1,0c0.4,0,0.8-0.1,1.2-0.2c1-0.3,1.4-1.2,1.3-2.2c-0.1-1.3-0.8-1.9-2.3-2
		c-1.6,0-3.2,0-4.8,0c0,0-0.1,0-0.1,0c0,4.5,0,9.1,0,13.7c-1.4,0-2.8,0-4.3,0c0-5.8,0-11.6,0-17.4c0.1,0,0.2,0,0.3,0
		c2.9,0,5.8,0,8.7,0c1.3,0,2.6,0.2,3.8,0.8c1.8,1,2.7,2.5,2.8,4.5c0.1,1,0,1.9-0.4,2.9c-0.6,1.6-1.9,2.5-3.5,3c0,0-0.1,0-0.1,0
		c0,0,0,0-0.1,0.1c1.3,2.1,2.6,4.1,3.9,6.2c-0.1,0-0.2,0-0.3,0c-1.4,0-2.9,0-4.3,0c-0.1,0-0.3-0.1-0.4-0.2c-1.9-3-3.8-6-5.6-9
		C35.4,24.5,35.4,24.5,35.3,24.4z"/>
	<path class="st0" d="M66.4,16.3c1.5,0,2.9,0,4.4,0c0,0.1,0,0.2,0,0.3c0,3.2,0,6.3,0,9.5c0,0.8,0.1,1.5,0.4,2.2
		c0.5,1.1,1.3,1.6,2.5,1.8c0.6,0.1,1.3,0.1,1.9-0.1c1.4-0.3,2.1-1.3,2.4-2.6c0.1-0.5,0.1-1.1,0.1-1.6c0-3,0-6.1,0-9.1
		c0-0.1,0-0.2,0-0.4c1.5,0,2.9,0,4.4,0c0,0.1,0,0.2,0,0.3c0,3.3,0,6.6,0,9.8c0,1.3-0.3,2.5-0.8,3.6c-0.9,1.9-2.3,3.1-4.3,3.7
		c-1.9,0.5-3.7,0.5-5.6,0.1c-2.6-0.7-4.2-2.4-4.9-5c-0.3-0.9-0.4-1.9-0.4-2.9c0-3.1,0-6.2,0-9.3C66.4,16.5,66.4,16.4,66.4,16.3z"/>
	<path class="st0" d="M23.3,16.3c1.4,0,2.8,0,4.2,0c0,5.8,0,11.6,0,17.5c-1.4,0-2.8,0-4.2,0C23.3,27.9,23.3,22.1,23.3,16.3z"/>
</g>
</svg>
