<?xml version="1.0" encoding="utf-8"?>
<!-- Generator: Adobe Illustrator 27.0.0, SVG Export Plug-In . SVG Version: 6.00 Build 0)  -->
<svg version="1.1" id="Layer_1" xmlns="http://www.w3.org/2000/svg" xmlns:xlink="http://www.w3.org/1999/xlink" x="0px" y="0px"
	 viewBox="0 0 100 50" style="enable-background:new 0 0 100 50;" xml:space="preserve">
<style type="text/css">
	.st0{fill:#FFFFFF;}
	.st1{clip-path:url(#SVGID_00000160180531844263748250000005270466137307743387_);fill:#FFFFFF;}
</style>
<g>
	<path class="st0" d="M18.4,30.5c3.8,2.6,4.7,6.8,2,10.3c-1.1,1.4-2.5,2.2-4.2,2.7c-1.4,0.4-2.7,0.6-4.2,0.6c-3.3,0-6.6,0-10,0
		c-0.7,0-1-0.1-0.9-0.9c0.5-7.6,1-15.3,1.5-22.9c0-0.4,0-0.7,0.6-0.7c3.7,0.1,7.5-0.2,11.2,0.2c1.3,0.1,2.5,0.5,3.6,1.1
		C21.6,22.8,22,28.2,18.4,30.5z M9.6,39.3c1.7,0,3.2,0,4.6-0.5c1.6-0.6,2.4-2.1,1.8-3.6c-0.5-1.2-1.7-1.5-2.8-1.7
		c-1.7-0.2-3.4-0.1-5.1-0.1c-0.5,0-0.6,0.2-0.6,0.6c0,0.8-0.1,1.7-0.1,2.5c0,0.9-0.4,2,0,2.5C7.8,39.7,9,39.1,9.6,39.3z M10.3,29.1
		c1,0,2,0,3-0.2c1.3-0.3,2.1-1.2,2.1-2.3c0-1-0.8-1.8-2.1-2.1c-1.5-0.3-3.1-0.1-4.6-0.2c-0.6,0-0.5,0.4-0.5,0.7
		C8,26.1,8,27.3,7.9,28.4c0,0.5,0,0.7,0.6,0.7C9,29,9.7,29.1,10.3,29.1z"/>
	<path class="st0" d="M58.1,44.1c-1.4,0-2.9,0-4.3,0c-0.8,0-0.9-0.2-0.9-1c0.5-6.8,0.9-13.6,1.4-20.4c0-0.6,0.1-1.1,0.1-1.7
		c0.1-1.5,0.1-1.5,1.6-1.4c3.2,0,6.3-0.1,9.5,0.3c9.2,1,11.6,9.2,9.6,15.5c-1.7,5.1-5.4,8.1-10.7,8.6C62.3,44.1,60.2,44,58.1,44.1z
		 M59.5,34.6c-0.1,1.1-0.1,2.3-0.2,3.4c0,0.5,0.1,0.7,0.6,0.7c1,0,1.9,0,2.9,0c3.9-0.1,6-2,6.8-5.8c0.8-4.2-1.5-7.3-5.7-7.8
		c-1-0.1-1.9-0.1-2.9-0.1c-0.7,0-0.9,0.1-1,0.9C59.9,28.7,59.7,31.6,59.5,34.6z"/>
	<path class="st0" d="M39.3,18.5c3.9,0,7.3,1.4,10,4.3c0.6,0.6,0.9,1.1,0,1.7c-0.1,0-0.1,0.1-0.2,0.2c-2.2,2-3.1,2-5.6,0.5
		c-2.9-1.8-6.5-1.7-9.1,0.4C32,27.4,31,31,32,34.1c1,3,4.2,4.8,7.7,4.4c2.1-0.3,4-1.1,5.5-2.6c0.4-0.4,0.6-0.4,1,0
		c0.8,1,1.6,2,2.5,2.9c0.4,0.4,0.3,0.7-0.1,1.1c-2,2-4.3,3.3-7,3.9c-3.5,0.8-6.9,0.4-10.1-1.3c-4.3-2.3-6.5-7.3-5.7-12.5
		C26.9,23,32.2,18.5,39.3,18.5z"/>
	<path class="st0" d="M91,38.6c-4.3,0-7.8-3.5-7.8-7.8c0-4.2,3.6-7.8,7.8-7.8c4.3,0,7.8,3.6,7.8,7.9C98.9,35.1,95.4,38.6,91,38.6z"
		/>
	<path class="st0" d="M82.2,21.8c-3.2-0.1-5.7-2.7-5.6-5.9c0.1-3.1,2.8-5.6,5.8-5.5c3.2,0.1,5.7,2.7,5.6,5.9
		C87.9,19.4,85.2,21.9,82.2,21.8z"/>
	<path class="st0" d="M65.6,10.3c0-2.4,2-4.4,4.4-4.4c2.3,0,4.4,2,4.4,4.3c0,2.4-1.9,4.4-4.3,4.4C67.6,14.7,65.6,12.7,65.6,10.3z"/>
	<path class="st0" d="M58.3,6.8c2.1,0,3.7,1.6,3.8,3.7c0,2.1-1.6,3.8-3.7,3.8c-2.1,0-3.8-1.7-3.8-3.8C54.6,8.5,56.2,6.8,58.3,6.8z"
		/>
	<path class="st0" d="M49,18.2c-1.8,0-3.1-1.3-3.1-3c0-1.8,1.5-3,3.1-3c1.7,0,3,1.4,3,3.1C52,16.9,50.7,18.2,49,18.2z"/>
	<path class="st0" d="M38.8,34.1c-1.5,0-2.6-1.1-2.6-2.5c0-1.5,1.2-2.7,2.6-2.7c1.5,0,2.6,1.2,2.6,2.7
		C41.5,33.1,40.3,34.1,38.8,34.1z"/>
</g>
</svg>
