<?xml version="1.0" encoding="utf-8"?>
<!-- Generator: Adobe Illustrator 27.0.0, SVG Export Plug-In . SVG Version: 6.00 Build 0)  -->
<svg version="1.1" id="Layer_1" xmlns="http://www.w3.org/2000/svg" xmlns:xlink="http://www.w3.org/1999/xlink" x="0px" y="0px"
	 viewBox="0 0 100 50" style="enable-background:new 0 0 100 50;" xml:space="preserve">
<style type="text/css">
	.st0{fill:#828282;}
</style>
<g>
	<path class="st0" d="M62.3,35.8c-3.6,4.9-8.5,7.6-14.6,7.9c-6,0.3-11.1-1.8-15.4-6.1c-0.4,0.5-0.7,0.9-1,1.3c-2.4,2.8-5.4,4-9,4
		c-5.9,0-11.8,0-17.8,0c-0.7,0-1.2,0-1.2-1c0-11.4,0-22.8,0-34.3c0-0.2,0-0.4,0.1-0.7C4,7,4.4,7,4.8,7c4.8,0,9.7,0.1,14.5,0
		c5.4-0.1,9.6,1.6,12,6.9c4.1-5.1,9.4-7.8,15.9-7.7c3.8,0,7.3,0.9,10.6,3.1c-1.3,2-2.5,4-3.8,6.1c-0.3-0.2-0.6-0.3-0.8-0.4
		c-7.8-4.7-17.8,0.6-18.2,9.7c-0.3,5.9,5.1,11.7,11,11.9c6.5,0.3,10.9-3.4,12.5-10.2c0.6-2.4,1-4.9,1.8-7.2
		c2.9-8.5,10.6-13.5,19.6-13c3.5,0.2,6.6,1.1,9.7,3.2c-1.3,2-2.5,4-3.8,6.1c-0.3-0.2-0.6-0.3-0.9-0.5c-4.1-2.5-9.2-2.4-13,0.5
		c-4,3-5.7,7.1-4.5,12c1.1,4.9,4.3,8,9.2,9c5.2,1.1,10.5-2.2,12-7.3c0-0.1,0-0.2,0-0.5c-3.6,0-7.2,0-11.1,0c0.9-1.5,1.9-2.6,2.5-4
		c1.1-2.4,2.7-3.2,5.3-3c3.3,0.3,6.6,0.1,9.8,0.1c0.4,0,0.8,0,1.2,0c1.4,5.9-1.2,14.8-8.8,19.4C81.1,45.1,69,45.1,62.3,35.8z
		 M11.3,36.4c3.9,0,7.6,0.1,11.4-0.1c1.8-0.1,3-1.3,3.5-3.1c0.4-1.6,0-3.2-1.4-4.1c-0.8-0.6-2-1-3-1c-3.2-0.1-6.4-0.1-9.6,0
		c-0.3,0-0.6,0.1-0.9,0.1C11.3,30.9,11.3,33.6,11.3,36.4z M11.3,21.5c3.4,0,6.6,0.1,9.9,0c1.9-0.1,3.1-2,3.1-4
		c0-1.9-1.3-3.6-3.2-3.7c-3.2-0.2-6.4,0-9.6,0c-0.1,0-0.1,0.1-0.2,0.2C11.3,16.3,11.3,18.8,11.3,21.5z"/>
</g>
</svg>
