<?xml version="1.0" encoding="utf-8"?>
<!-- Generator: Adobe Illustrator 27.0.0, SVG Export Plug-In . SVG Version: 6.00 Build 0)  -->
<svg version="1.1" id="Layer_1" xmlns="http://www.w3.org/2000/svg" xmlns:xlink="http://www.w3.org/1999/xlink" x="0px" y="0px"
	 viewBox="0 0 63.3 50" style="enable-background:new 0 0 63.3 50;" xml:space="preserve">
<style type="text/css">
	.st0{fill:#FFFFFF;}
	.st1{clip-path:url(#SVGID_00000114788372425827101280000004614791281693787822_);fill:#FFFFFF;}
</style>
<g>
	<path class="st0" d="M2.8,25.2c0-6.1,0-12.3,0-18.4c0-0.3,0-0.3,0.3-0.3c5,0,10,0,15,0c0.3,0,0.3,0,0.3,0.3c0,0.6,0,1.1,0,1.7
		c0,0.2,0,0.2-0.2,0.2c-1.4,0-2.7,0-4.1,0c-1.9,0-3.9,0-5.8,0C8,8.6,8,8.6,8,8.9c0,4.8,0,9.6,0,14.5c0,0,0,0.1,0,0.1
		c0,0.1,0,0.1,0.2,0.1c0.3,0,0.7,0,1,0c2,0,4.1,0,6.1,0c0.3,0,0.2,0,0.2,0.3c0,0.5,0,1,0,1.6c0,0.2,0,0.2-0.2,0.2c-0.5,0-1,0-1.5,0
		c-1.9,0-3.7,0-5.6,0c-0.3,0-0.2,0-0.2,0.2c0,5.2,0,10.4,0,15.6c0,0.3,0,0.2,0.3,0.2c3.3,0,6.6,0,9.8,0c0.3,0,0.3,0,0.3,0.3
		c0,0.5,0,1,0,1.6c0,0.3,0,0.3-0.3,0.3c-2.1,0-4.3,0-6.4,0c-2.8,0-5.7,0-8.5,0c0,0-0.1,0-0.1,0c-0.3,0-0.2,0-0.2-0.2
		C2.8,37.5,2.8,31.3,2.8,25.2z"/>
	<path class="st0" d="M30.5,29.5c0.4,0.2,0.8,0.3,1.2,0.5c1.3,0.7,2.3,1.8,2.8,3.2c0.5,1.3,0.6,2.6,0.6,3.9c-0.1,1.6-0.5,3-1.5,4.2
		c-1,1.3-2.3,2.1-3.9,2.4c-0.5,0.1-0.9,0.1-1.4,0.1c-2.2,0-4.3,0-6.5,0c0,0,0,0-0.1,0c-0.2,0-0.2,0-0.2-0.2c0-1.2,0-2.5,0-3.7
		c0-6.9,0-13.8,0-20.7c0-0.3,0-0.3,0.3-0.3c1.9,0,3.8,0,5.8,0c0.9,0,1.8,0.1,2.7,0.5c1.6,0.6,2.5,1.7,2.8,3.3
		c0.3,1.3,0.2,2.6-0.2,3.8c-0.4,1.2-1.1,2.1-2.2,2.8C30.6,29.4,30.5,29.4,30.5,29.5z M25.3,36.3c0,1.9,0,3.7,0,5.6
		c0,0.2,0,0.2,0.2,0.2c0.6,0,1.3,0,1.9,0c0.3,0,0.6-0.1,0.9-0.2c0.8-0.3,1.4-0.8,1.9-1.6c0.6-0.9,0.8-1.9,0.9-3c0.1-0.7,0-1.3,0-2
		c-0.1-0.8-0.3-1.6-0.6-2.4c-0.3-0.6-0.6-1.2-1.1-1.7c-0.5-0.5-1.1-0.8-1.9-0.8c-0.5,0-1,0-1.6,0c-0.2,0-0.4,0-0.6,0
		c-0.1,0-0.1,0-0.1,0.1c0,0,0,0.1,0,0.1C25.3,32.6,25.3,34.4,25.3,36.3z M25.3,24.8c0,0.1,0,0.3,0,0.4c0,1.1,0,2.2,0,3.3
		c0,0.2,0,0.2,0.2,0.2c0.6,0,1.2,0,1.8,0c0.5,0,0.9-0.2,1.2-0.5c0.4-0.4,0.7-0.8,0.8-1.3c0.3-0.9,0.4-1.9,0.3-2.9
		c0-0.6-0.2-1.2-0.4-1.7c-0.4-0.8-1.1-1.3-2-1.4c-0.3,0-0.6,0-0.9,0c-0.3,0-0.6,0-0.9,0c-0.2,0-0.2,0-0.2,0.2c0,0,0,0.1,0,0.1
		C25.3,22.4,25.3,23.6,25.3,24.8z"/>
	<path class="st0" d="M60,19c-0.3,0.6-0.5,1.1-0.7,1.6c-1.3,2.9-2.7,5.9-4,8.8c-0.1,0.1-0.1,0.3,0,0.4c1.7,4.6,3.5,9.2,5.2,13.8
		c0,0.1,0.1,0.2,0.1,0.2c-0.1,0-0.1,0-0.2,0c-1.3,0-2.6,0-3.9,0c-0.3,0-0.2,0-0.3-0.2c-1.1-2.8-2.2-5.7-3.2-8.5c0-0.1,0-0.1-0.1-0.2
		c-0.1,0.1-0.1,0.1-0.1,0.2c-1.3,2.8-2.6,5.7-3.8,8.5c0,0,0,0.1-0.1,0.1c0,0.1-0.1,0.1-0.1,0.1c-0.6,0-1.2,0-1.8,0
		c0-0.1,0-0.2,0.1-0.2c1.2-2.7,2.5-5.5,3.7-8.2c0.4-0.9,0.8-1.8,1.2-2.7c0.1-0.1,0.1-0.2,0-0.4c-1.7-4.4-3.3-8.7-5-13.1
		c0-0.1-0.1-0.2-0.1-0.3c0.1,0,0.1,0,0.2,0c1.3,0,2.6,0,4,0c0.2,0,0.2,0,0.3,0.2c1,2.6,2,5.2,3,7.9c0,0.1,0,0.1,0.1,0.2
		c0.1,0,0.1-0.1,0.1-0.2c0.9-2.1,1.9-4.2,2.8-6.2c0.2-0.6,0.5-1.1,0.7-1.7c0.1-0.1,0.1-0.2,0.2-0.2c0.5,0,1.1,0,1.6,0
		C59.9,19,59.9,19,60,19z"/>
	<path class="st0" d="M39.9,49.1c0-0.1,0-0.3,0-0.4c-0.1-0.7-0.1-1.5-0.2-2.2c-0.1-0.9-0.2-1.8-0.2-2.7c-0.1-0.7-0.1-1.5-0.2-2.2
		c-0.1-0.7-0.1-1.5-0.2-2.2c-0.1-0.6-0.1-1.2-0.2-1.7c-0.1-0.7-0.1-1.5-0.2-2.2c-0.1-0.6-0.1-1.1-0.2-1.7c-0.1-0.7-0.1-1.5-0.2-2.2
		c-0.1-0.6-0.1-1.1-0.2-1.7c-0.1-0.7-0.1-1.5-0.2-2.2c-0.1-0.6-0.1-1.1-0.2-1.7c-0.1-0.7-0.1-1.5-0.2-2.2c-0.1-0.6-0.1-1.1-0.2-1.7
		c-0.1-0.7-0.1-1.5-0.2-2.2c-0.1-0.6-0.1-1.1-0.2-1.7c-0.1-0.7-0.1-1.5-0.2-2.2c0-0.3,0-0.3,0.2-0.2c0.9,0.1,1.8,0.2,2.7,0.2
		c0.5,0,1.1,0.1,1.6,0.1c0.8,0.1,1.5,0.1,2.3,0.2c0.2,0,0.5,0,0.7,0.1c0.2,0,0.2,0,0.2,0.2c0,0.4-0.1,0.7-0.2,1.1
		c-0.1,0.9-0.2,1.8-0.4,2.7c-0.1,1-0.3,2-0.4,3c-0.1,0.9-0.2,1.8-0.4,2.7c-0.1,0.9-0.3,1.8-0.4,2.7c-0.1,0.9-0.2,1.8-0.4,2.6
		c-0.1,1-0.3,2-0.4,3c-0.1,0.8-0.2,1.5-0.3,2.3c-0.1,1-0.3,2-0.4,3c-0.1,0.9-0.2,1.8-0.4,2.7c-0.1,0.9-0.3,1.8-0.4,2.7
		c-0.1,0.9-0.2,1.8-0.4,2.6C40.1,47.9,40,48.4,39.9,49.1C40,49,40,49.1,39.9,49.1z"/>
	<path class="st0" d="M37.9,5.8c0.1,0.1,0.1,0,0.2,0c0.9,0,1.9,0,2.8,0.1c2.2,0.3,4.4,0.7,6.4,1.5c0.7,0.3,1.5,0.6,2.1,1.1
		C49.8,8.7,50,9,50.2,9.2c0.4,0.5,0.4,1,0.1,1.5c-0.2,0.4-0.5,0.6-0.8,0.9c-0.6,0.4-1.2,0.7-1.9,0.9c-1,0.3-2,0.5-3,0.6
		c-0.9,0.1-1.8,0.2-2.7,0.2c-0.5,0-0.9,0-1.3,0c-1.2-0.1-2.4-0.3-3.6-0.8c-0.6-0.3-1.1-0.6-1.5-1c-0.8-0.8-1.2-1.8-1.2-3
		c0.1-1.6,0.7-3,1.8-4.1c0.8-0.9,1.9-1.5,3-2c1.5-0.7,3-1.1,4.6-1.4c0.2,0,0.2,0,0.2,0.2C44,1.8,44,2.5,44.1,3.2
		c0,0.2,0,0.2-0.2,0.2C42.2,3.5,40.5,4,39,5C38.6,5.2,38.3,5.5,37.9,5.8z M42.1,11.5c0.5,0,1.2,0,1.9-0.1c0.9-0.1,1.8-0.1,2.7-0.3
		c0.6-0.1,1.1-0.2,1.6-0.4c0.2-0.1,0.3-0.2,0.4-0.3c0.2-0.2,0.2-0.4,0.1-0.7c-0.1-0.2-0.3-0.3-0.4-0.4c-0.3-0.2-0.7-0.4-1-0.5
		c-2.4-1.2-5-1.9-7.7-2.3c-0.7-0.1-1.4-0.2-2.1-0.2c-0.2,0-0.3,0-0.4,0.1c-0.4,0.5-0.7,1-0.9,1.7c-0.1,0.4-0.1,0.8,0,1.2
		c0.2,0.7,0.6,1.1,1.2,1.5c0.5,0.3,1,0.5,1.6,0.6C40.1,11.5,41,11.5,42.1,11.5z"/>
</g>
</svg>
