<?xml version="1.0" encoding="utf-8"?>
<!-- Generator: Adobe Illustrator 27.0.0, SVG Export Plug-In . SVG Version: 6.00 Build 0)  -->
<svg version="1.1" id="Layer_1" xmlns="http://www.w3.org/2000/svg" xmlns:xlink="http://www.w3.org/1999/xlink" x="0px" y="0px"
	 viewBox="0 0 100 50" style="enable-background:new 0 0 100 50;" xml:space="preserve">
<style type="text/css">
	.st0{fill:#828282;}
</style>
<g>
	<path class="st0" d="M12.4,14.8c-0.4-0.1-0.7-0.3-1.1-0.4c-0.9-0.4-1.7-0.7-2.6-0.8s-1.8-0.2-2.6,0.2c-0.4,0.2-0.7,0.4-0.8,0.9
		c-0.1,0.3,0,0.6,0.3,0.9c0.3,0.3,0.6,0.5,1,0.7c0.7,0.3,1.4,0.6,2.1,0.8c0.7,0.3,1.5,0.6,2.2,1c0.8,0.5,1.4,1.1,1.8,1.9
		c0.8,1.6,0.6,4.3-1.8,5.6c-1,0.5-2,0.8-3.1,0.9c-1.4,0.1-2.8,0-4.1-0.5c-0.7-0.3-1.3-0.6-1.9-0.9c-0.1,0-0.1-0.1-0.1-0.2
		c0-1,0-2,0-3c0,0,0,0,0-0.1C1.8,21.9,1.9,21.9,2,22c1,0.6,2,1.2,3.1,1.5c1,0.3,1.9,0.3,2.9,0.1c0.6-0.1,1-0.4,1.1-1.1
		c0.1-0.5-0.2-0.9-0.6-1.2c-0.4-0.3-1-0.5-1.5-0.7c-1-0.4-2-0.7-2.9-1.2C3.3,19,2.5,18.5,2,17.8c-0.6-0.8-0.8-1.6-0.8-2.6
		c0-1.8,0.9-2.9,2.5-3.7C4.8,11,6,10.8,7.2,10.8c1.7,0,3.3,0.5,4.9,1.1c0.1,0,0.1,0.1,0.1,0.2C12.5,12.9,12.5,13.8,12.4,14.8
		C12.5,14.8,12.5,14.8,12.4,14.8z"/>
	<path class="st0" d="M39.9,31.8c-0.2,0.4-0.4,0.8-0.5,1.1c0,0-0.1,0.1-0.2,0.1c-0.8,0-1.7,0-2.5,0c-0.2,0-0.3,0.1-0.3,0.2
		c-0.1,0.3-0.2,0.6-0.3,0.9c0,0.1,0,0.1,0,0.2c0.8,0,1.6,0,2.4,0c-0.1,0.2-0.2,0.3-0.3,0.4c-1.2,1.6-2.8,2.9-4.6,3.7
		c-1.3,0.6-2.7,1-4.2,0.9c-1.4-0.1-2.5-0.6-3.4-1.7c-0.6-0.8-0.8-1.7-0.8-2.6c0-0.5,0.1-1,0.1-1.5c0-0.2,0.1-0.2,0.3-0.2
		c0.8,0,1.5,0,2.3,0c0.2,0,0.2,0,0.3-0.2c0.1-0.3,0.2-0.6,0.3-0.9c0-0.1,0-0.1,0.1-0.2c-0.9,0-1.8,0-2.7,0c0.1-0.3,0.3-0.5,0.4-0.8
		s0.3-0.4,0.6-0.4c0.6,0,1.1,0,1.7,0c0.1,0,0.2,0,0.3-0.2c0.1-0.3,0.2-0.6,0.3-0.9c0-0.1,0-0.1,0.1-0.2c-0.6,0-1.2,0-1.8,0
		c0,0,0,0,0-0.1c0.2-0.3,0.4-0.5,0.6-0.8c1.3-1.4,2.8-2.6,4.6-3.3c1.2-0.5,2.4-0.8,3.7-0.7c1.3,0.1,2.5,0.5,3.3,1.6
		c0.5,0.6,0.8,1.4,0.9,2.2c0.1,0.6,0,1.3-0.1,1.9c0,0.1-0.1,0.2-0.2,0.2c-0.9,0-1.9,0-2.8,0c-0.1,0-0.2,0-0.3,0.2
		C37.1,31,37,31.3,37,31.6c-0.1,0.2,0,0.2,0.2,0.2C38.1,31.8,39,31.8,39.9,31.8C39.7,31.8,39.8,31.8,39.9,31.8z M27.4,36.3
		c0.1,0,0.1,0,0.2,0c1,0,1.9,0,2.9,0s2-0.3,2.8-0.8c0.6-0.4,1.1-1,1.3-1.8c0.4-1.3,0.7-2.7,1.1-4c0.1-0.3,0.1-0.3,0.4-0.3
		c0.6,0,1.2,0,1.8,0c0.1,0,0.2,0,0.2-0.2c0-0.1,0.1-0.3,0.1-0.4c0.1-0.4,0.2-0.9,0.3-1.3c-0.1,0-0.2,0-0.2,0c-0.9,0-1.8,0-2.8,0
		c-0.5,0-1.1,0-1.6,0.2c-1.3,0.5-2.2,1.3-2.5,2.7c-0.3,1.1-0.5,2.2-0.8,3.3c-0.1,0.4-0.3,0.5-0.7,0.5c-0.6,0-1.1,0-1.7,0
		c-0.2,0-0.2,0.1-0.3,0.2c-0.1,0.5-0.3,1-0.4,1.6C27.4,36.2,27.4,36.2,27.4,36.3z"/>
	<path class="st0" d="M72.8,25.3c-0.2,0.1-0.3,0.2-0.4,0.2c-0.8,0.6-1.7,0.8-2.7,0.8c-2.1-0.1-3.8-1.4-4.4-3.5
		c-0.5-1.7-0.4-3.4,0.6-4.9c0.7-1.2,1.7-1.8,3-2.1c1.2-0.3,2.4-0.1,3.5,0.4c0.1,0,0.2,0.1,0.3,0.1c0-0.1,0-0.2,0-0.3
		c0-1.6,0-3.3,0-4.9c0-0.2,0-0.2,0.2-0.2c0.9,0,1.8,0,2.8,0c0.2,0,0.2,0.1,0.2,0.2c0,3.2,0,6.3,0,9.5c0,1.8,0,3.5,0,5.3
		c0,0.2,0,0.2-0.2,0.2c-0.9,0-1.8,0-2.7,0c-0.2,0-0.2,0-0.2-0.2C72.8,25.8,72.8,25.6,72.8,25.3z M72.8,20.9c0-0.8,0-1.5,0-2.3
		c0-0.2-0.1-0.2-0.2-0.3c-0.5-0.3-1-0.5-1.6-0.5c-1,0-1.8,0.4-2.2,1.3c-0.6,1.2-0.6,2.4-0.1,3.6c0.3,0.7,0.8,1.3,1.6,1.5
		c0.9,0.2,1.7,0,2.4-0.6c0.1-0.1,0.2-0.2,0.2-0.4C72.8,22.4,72.8,21.7,72.8,20.9z"/>
	<path class="st0" d="M31.9,23.9c0-0.2,0-0.4,0-0.6c0-0.9,0-1.8,0-2.8c0-0.4,0-0.9-0.2-1.3c-0.3-1.3-1.6-1.4-2.4-0.9
		c-0.5,0.3-0.9,0.8-1.2,1.3c0,0.1,0,0.2,0,0.2c0,2,0,4.1,0,6.1c0,0.2,0,0.2-0.2,0.2c-0.9,0-1.8,0-2.7,0c-0.2,0-0.2,0-0.2-0.3
		c0-4.9,0-9.8,0-14.7c0-0.3,0-0.3,0.3-0.3c0.9,0,1.8,0,2.7,0c0.3,0,0.3,0,0.3,0.3c0,2,0,4,0,6c0,0.1,0,0.1,0,0.3
		c0.1-0.1,0.1-0.1,0.2-0.2c0.5-0.5,1-1,1.6-1.3c0.8-0.4,1.7-0.4,2.6-0.2c1.7,0.5,2.6,1.7,2.7,3.4c0,1.2,0,2.3,0,3.5
		c0,0.1,0,0.2-0.1,0.2C33.9,23,33,23.4,31.9,23.9C32,23.9,32,23.9,31.9,23.9z"/>
	<path class="st0" d="M88.2,21.6c-2.5,0-4.9,0-7.4,0c0,0.6,0.2,1.2,0.6,1.7c0.5,0.7,1.2,1,1.9,1.1c1.4,0.2,2.7,0,3.9-0.8
		c0.3-0.2,0.5-0.3,0.8-0.5c0,0.2,0,0.3,0,0.4c0,0.4,0,0.9,0,1.3c0,0.2-0.1,0.3-0.2,0.3c-0.9,0.6-1.9,1-3,1.1
		c-1.1,0.2-2.3,0.2-3.4-0.1c-1.1-0.3-2.2-0.8-2.9-1.7c-0.9-1.1-1.2-2.3-1.1-3.7c0-1.1,0.4-2.1,1-3c0.7-1,1.7-1.6,3-1.9
		c1.6-0.4,3.2-0.2,4.6,0.8c1.1,0.7,1.7,1.7,2,3C88.2,20.2,88.2,20.9,88.2,21.6z M83.1,19.9L83.1,19.9c0.3,0,0.6,0,0.9,0
		c0.4,0,0.8,0,1.2,0c0.1,0,0.2,0,0.2-0.1c-0.1-0.6-0.3-1.2-0.8-1.7c-0.6-0.5-1.2-0.6-1.9-0.5c-0.7,0.1-1.2,0.5-1.5,1.1
		c-0.1,0.3-0.2,0.6-0.3,0.9c-0.1,0.2,0,0.2,0.2,0.2C81.7,19.9,82.4,19.9,83.1,19.9z"/>
	<path class="st0" d="M59,23c0,0.6,0,1.2,0,1.8c0,0.1-0.1,0.1-0.1,0.2c-0.8,0.6-1.7,0.9-2.6,1.1c-1.4,0.3-2.9,0.2-4.3-0.2
		c-1.4-0.5-2.5-1.3-3.1-2.7c-0.8-1.8-0.6-4.4,1-6c0.9-0.9,1.9-1.4,3.1-1.5c1-0.1,2.1-0.1,3,0.3c1.4,0.6,2.3,1.5,2.8,2.9
		c0.3,0.7,0.4,1.5,0.4,2.3c0,0.3,0,0.3-0.3,0.3c-2.3,0-4.6,0-6.9,0c-0.3,0-0.3,0-0.3,0.3c0.2,1.4,1.1,2.3,2.5,2.5s2.7,0,3.9-0.8
		C58.4,23.4,58.7,23.2,59,23z M51.8,19.9c0.1,0,0.1,0,0.2,0c1.4,0,2.8,0,4.2,0c0.2,0,0.2-0.1,0.2-0.2c-0.2-1.2-0.9-2.2-2.4-2.1
		c-0.7,0-1.3,0.3-1.7,0.9C52,18.9,51.9,19.4,51.8,19.9z"/>
	<path class="st0" d="M39.9,24.2c-0.4-0.4-0.9-0.7-1.4-0.9c-0.5-0.2-1-0.4-1.6-0.4c-0.2,0-0.2-0.1-0.2-0.2c0-2.2,0-4.4,0-6.6
		c0-0.2,0-0.2,0.2-0.2c0.9,0,1.9,0,2.8,0c0.2,0,0.2,0,0.2,0.2c0,0.3,0,0.7,0,1c0,0.1,0,0.1,0,0.2c0,0,0,0,0.1,0
		c0.1-0.1,0.1-0.2,0.2-0.2c0.7-0.7,1.5-1.2,2.4-1.4c1.3-0.2,2.5,0.1,3.5,1.1c0.5,0.6,0.8,1.3,0.9,2c0,0.3,0.1,0.7,0.1,1c0,2,0,4,0,6
		c0,0.3,0,0.3-0.3,0.3c-0.9,0-1.8,0-2.7,0c-0.2,0-0.2,0-0.2-0.2c0-2,0-3.9,0-5.9c0-0.3,0-0.7-0.1-1c-0.3-1.1-1.4-1.6-2.4-1
		c-0.5,0.3-0.8,0.7-1.1,1.1c-0.2,0.3-0.3,0.6-0.3,1c0,1.3,0,2.6,0,3.9C39.9,24.1,39.9,24.1,39.9,24.2L39.9,24.2z"/>
	<path class="st0" d="M23.4,23.4c0,0.4,0,0.8,0,1.2c0,0.3,0,0.6,0,0.9c0,0.1,0,0.2-0.2,0.2c-1.3,0.5-2.6,0.7-4,0.6
		c-1.2-0.1-2.3-0.4-3.3-1.2c-1.2-0.9-1.8-2.2-1.9-3.6c-0.1-1.2,0.1-2.4,0.9-3.5c0.8-1.2,1.9-1.9,3.3-2.2c0.8-0.2,1.7-0.2,2.6-0.1
		c0.8,0.1,1.6,0.3,2.4,0.6c0.1,0,0.2,0.1,0.2,0.2c0,0.7,0,1.4,0,2.1c0,0,0,0,0,0.1c-0.3-0.1-0.6-0.2-0.9-0.3c-1-0.3-2-0.5-3-0.1
		c-1.1,0.4-1.8,1.2-1.9,2.3c-0.1,0.6,0,1.2,0.2,1.8c0.5,1.1,1.4,1.6,2.5,1.7c1,0.1,1.9-0.2,2.8-0.5C23.1,23.5,23.2,23.4,23.4,23.4
		L23.4,23.4z"/>
	<path class="st0" d="M97.7,19.4c-0.3-0.2-0.7-0.4-1-0.5c-0.7-0.3-1.5-0.3-2.1,0.2c-0.3,0.2-0.5,0.5-0.7,0.8
		c-0.3,0.5-0.5,1.1-0.8,1.6C93,21.6,93,21.8,93,21.9c0,1.3,0,2.6,0,3.9c0,0.2-0.1,0.2-0.2,0.2c-0.9,0-1.8,0-2.8,0
		c-0.2,0-0.2-0.1-0.2-0.2c0-3.3,0-6.6,0-9.8c0-0.2,0.1-0.2,0.2-0.2c0.9,0,1.8,0,2.7,0c0.2,0,0.2,0,0.2,0.3c0,0.8,0,1.6,0,2.4
		c0,0.1,0,0.2,0,0.3c0,0,0,0,0.1,0c0-0.1,0.1-0.1,0.1-0.2c0.3-0.7,0.7-1.4,1.2-1.9c0.6-0.6,1.2-1,2.1-1c0.5,0,1,0.2,1.4,0.5
		c0.2,0.1,0.4,0.2,0.5,0.4c0,0,0.1,0.1,0.1,0.2C98.3,17.6,98,18.5,97.7,19.4z"/>
	<path class="st0" d="M60.5,21c0-1.6,0-3.3,0-4.9c0-0.2,0.1-0.2,0.2-0.2c0.9,0,1.7,0,2.6,0c0.4,0,0.4-0.1,0.4,0.4c0,2,0,3.9,0,5.9
		c0,1.3,0,2.5,0,3.8c0,0.3,0,0.3-0.3,0.3c-0.9,0-1.8,0-2.7,0c-0.2,0-0.2,0-0.2-0.2C60.5,24.3,60.5,22.7,60.5,21z"/>
	<path class="st0" d="M48.7,31.8c0,0.4,0,0.7,0,1l-0.1,0.1c-0.1,0-0.1,0-0.2,0c-1.1,0-2.1,0-3.2,0C45,32.9,45,33,45,33.1
		c0,0.8,0,1.6,0,2.4c0,0.2,0.1,0.2,0.2,0.2c1.1,0,2.3,0,3.4,0c0.2,0,0.2,0,0.2,0.3c0,0.2,0,0.4,0,0.7c0,0.1,0,0.2-0.2,0.2
		c-1.6,0-3.1,0-4.7,0c-0.3,0-0.3,0-0.3-0.3c0-2.8,0-5.5,0-8.3c0-0.3,0-0.3,0.3-0.3c1.5,0,3,0,4.5,0c0.2,0,0.2,0.1,0.2,0.2
		c0,0.2,0,0.4,0,0.7c0,0.2-0.1,0.2-0.2,0.2c-1.1,0-2.2,0-3.3,0c-0.3,0-0.3,0-0.3,0.3c0,0.8,0,1.5,0,2.3c0,0.2,0,0.2,0.2,0.2
		c1,0,2,0,3.1,0C48.5,31.8,48.6,31.8,48.7,31.8z"/>
	<path class="st0" d="M61.4,34.1c-1.4,0-2.8,0-4.1,0c-0.1,0.7,0.6,1.5,1.3,1.7s1.4,0.1,2-0.2c0.2-0.1,0.4-0.2,0.7-0.3
		c0,0.3,0,0.7,0,1l-0.1,0.1c-0.9,0.6-1.9,0.8-2.9,0.5c-0.9-0.2-1.6-0.8-1.9-1.7c-0.4-0.9-0.3-1.8,0-2.7c0.4-1,1.5-1.6,2.7-1.5
		c1.3,0.1,2,1,2.2,2.2C61.4,33.4,61.4,33.7,61.4,34.1z M57.3,33.4c1,0,2,0,3,0c0-0.5-0.1-0.9-0.6-1.2c-0.5-0.4-1.1-0.3-1.6-0.1
		C57.6,32.3,57.4,32.8,57.3,33.4z"/>
	<path class="st0" d="M95.7,35.6c0,0.3,0,0.7,0,1l-0.1,0.1c-1.2,0.4-2.4,0.5-3.5-0.3c-0.6-0.5-1-1.1-1.1-1.9c-0.1-0.7,0-1.3,0.3-2
		c0.4-0.9,1.1-1.4,2.1-1.5c0.7-0.1,1.3,0,2,0.3c0.1,0.1,0.2,0.1,0.2,0.3c0,0.3,0,0.6,0,1c-0.1-0.1-0.3-0.1-0.4-0.2
		c-0.5-0.3-1-0.4-1.6-0.3c-0.8,0.2-1.4,0.8-1.5,1.7c0,0.4,0,0.9,0.2,1.3c0.3,0.6,0.8,0.8,1.5,0.9c0.6,0.1,1.1-0.1,1.6-0.3
		C95.5,35.6,95.6,35.6,95.7,35.6z"/>
	<path class="st0" d="M69,32.5c-0.2-0.1-0.4-0.2-0.6-0.3C68,32,67.5,31.9,67,32c-0.6,0.1-1,0.5-1.2,1s-0.2,1.1-0.1,1.7
		c0.2,0.7,0.9,1.2,1.6,1.2c0.6,0,1.1-0.1,1.7-0.3c0,0,0.1,0,0.2-0.1c0,0.4,0,0.7,0,1l-0.1,0.1c-1.2,0.4-2.3,0.5-3.4-0.2
		c-0.7-0.5-1.1-1.2-1.1-2c-0.1-0.8,0-1.6,0.5-2.3c0.4-0.7,1.1-1,1.9-1.1c0.7-0.1,1.3,0,2,0.3c0.1,0,0.2,0.1,0.2,0.2
		C69,31.8,69,32.1,69,32.5z"/>
	<path class="st0" d="M76.4,35.6c0,0.3,0,0.6,0,0.9c0,0,0,0.1-0.1,0.1c-0.7,0.3-1.4,0.5-2.2,0.2c-0.6-0.2-0.9-0.7-1-1.3
		c0-0.2,0-0.3,0-0.5c0-0.9,0-1.7,0-2.6c0-0.4,0-0.4-0.4-0.4c-0.2,0-0.4,0-0.6,0c0,0,0,0-0.1,0c0.7-0.7,1.4-1.4,2.2-2.1
		c0,0.3,0,0.5,0,0.8c0,0.4,0,0.3,0.3,0.3c0.4,0,0.9,0,1.3,0c0.1,0,0.2,0,0.2,0.2s0,0.4,0,0.6c0,0.1-0.1,0.2-0.2,0.2
		c-0.5,0-1,0-1.5,0c-0.2,0-0.2,0.1-0.2,0.2c0,0.9,0,1.8,0,2.7c0,0.8,0.5,1.2,1.3,1C75.8,35.8,76.1,35.7,76.4,35.6z"/>
	<path class="st0" d="M52,32.4c0-1.4,0-2.8,0-4.2c0-0.2,0-0.2,0.2-0.2s0.5,0,0.7,0c0.1,0,0.2,0,0.2,0.2c0,0.9,0,1.7,0,2.6
		c0,1.9,0,3.9,0,5.8c0,0.3,0,0.3-0.3,0.3c-0.2,0-0.5,0-0.7,0c-0.1,0-0.2,0-0.2-0.2C52,35.3,52,33.9,52,32.4z"/>
	<path class="st0" d="M62.6,10.7c0.9,0,1.4,0.6,1.3,1.4c-0.1,0.8-0.6,1.4-1.3,1.8c-0.3,0.2-0.7,0.3-1.1,0.3c-0.8,0-1.4-0.7-1.2-1.5
		c0.2-0.9,1.1-1.9,2-2C62.4,10.8,62.5,10.8,62.6,10.7z"/>
	<path class="st0" d="M83.1,32.5c-0.2-0.1-0.3-0.2-0.5-0.3c-0.6-0.4-1.3-0.2-1.7,0.4c-0.2,0.3-0.4,0.7-0.4,1.1c0,1,0,2,0,2.9
		c0,0.2,0,0.2-0.2,0.2c-0.3,0-0.6,0-0.9,0c0-1.9,0-3.9,0-5.8c0.4,0,0.7,0,1.1,0c0,0.4,0,0.9,0,1.3c0,0,0,0,0.1,0
		c0-0.1,0.1-0.1,0.1-0.2c0.2-0.3,0.4-0.5,0.6-0.8c0.5-0.6,1.2-0.7,1.8-0.3c0.6,0.3,0.6,0.3,0.3,0.9C83.3,32.2,83.2,32.4,83.1,32.5z"
		/>
	<path class="st0" d="M86.8,31c0.4,0,0.7,0,1,0l0.1,0.1c0,0.1,0,0.2,0,0.2c0,1.7,0,3.5,0,5.2c0,0.2-0.1,0.2-0.2,0.2
		c-0.2,0-0.5,0-0.7,0s-0.2,0-0.2-0.2c0-1.2,0-2.4,0-3.5C86.8,32.4,86.8,31.8,86.8,31z"/>
	<path class="st0" d="M87.1,29.9c-0.3,0-0.5-0.3-0.4-0.6c0.1-0.3,0.4-0.6,0.7-0.6c0.4,0,0.6,0.2,0.5,0.6
		C87.8,29.6,87.5,29.9,87.1,29.9z"/>
</g>
</svg>
