<?xml version="1.0" encoding="utf-8"?>
<!-- Generator: Adobe Illustrator 27.0.0, SVG Export Plug-In . SVG Version: 6.00 Build 0)  -->
<svg version="1.1" id="Layer_1" xmlns="http://www.w3.org/2000/svg" xmlns:xlink="http://www.w3.org/1999/xlink" x="0px" y="0px"
	 viewBox="0 0 100 50" style="enable-background:new 0 0 100 50;" xml:space="preserve">
<style type="text/css">
	.st0{fill:#828282;}
</style>
<g>
	<path class="st0" d="M27.7,23.2c0-1.4,0-2.8,0-4.1c0-1.4,0-2.7,0-4.1h-0.1c-0.1,0.3-0.2,0.6-0.3,0.8c-0.6,1.7-1.2,3.4-1.9,5.1
		c-0.2,0.7-0.5,1.4-0.7,2c-0.1,0.3-0.2,0.3-0.5,0.3c-0.7,0-1.4,0-2.1,0c-0.2,0-0.3-0.1-0.4-0.3c-0.9-2.6-1.9-5.2-2.9-7.8
		c0-0.1-0.1-0.2-0.1-0.3c0,0,0,0-0.1,0c0,0.1,0,0.2,0,0.3c0,2.6,0,5.1,0,7.7c0,0.2-0.1,0.3-0.3,0.3c-0.8,0-1.6,0-2.4,0
		c-0.2,0-0.3-0.1-0.3-0.3c0-3.7,0-7.3,0-11c0-0.2,0.1-0.3,0.3-0.3c1.4,0,2.9,0,4.3,0c0.2,0,0.3,0.1,0.3,0.2c0.7,1.8,1.3,3.7,2,5.5
		c0.2,0.4,0.3,0.9,0.5,1.3c0,0.1,0.1,0.1,0.2,0.3c0.1-0.2,0.2-0.4,0.2-0.5c0.8-2.2,1.6-4.4,2.4-6.6c0.1-0.2,0.1-0.3,0.3-0.3
		c1.4,0,2.8,0,4.2,0c0.2,0,0.3,0.1,0.3,0.3c0,3.7,0,7.3,0,11c0,0.2-0.1,0.3-0.3,0.3c-0.8,0-1.6,0-2.4,0
		C27.9,23.2,27.9,23.2,27.7,23.2z"/>
	<path class="st0" d="M88.6,16c0,0.1,0,0.2,0,0.3c0,2.2,0,4.4,0,6.6c0,0.3-0.1,0.4-0.3,0.3c-0.8,0-1.6,0-2.4,0
		c-0.2,0-0.3-0.1-0.3-0.3c0-3.7,0-7.3,0-11c0-0.2,0.1-0.3,0.3-0.3c1.1,0,2.2,0,3.4,0c0.2,0,0.3,0.1,0.4,0.2c1.5,2.2,3,4.5,4.5,6.7
		c0,0,0.1,0.1,0.2,0.2c0-0.2,0.1-0.3,0.1-0.4c0-2.1,0-4.3,0-6.4c0-0.3,0.1-0.4,0.3-0.3c0.8,0,1.6,0,2.4,0c0.2,0,0.3,0.1,0.3,0.3
		c0,3.7,0,7.3,0,11c0,0.2-0.1,0.3-0.3,0.3c-1.1,0-2.1,0-3.2,0c-0.2,0-0.3-0.1-0.4-0.2c-1.4-2.2-2.9-4.4-4.3-6.5
		C89,16.3,88.9,16.1,88.6,16C88.7,15.9,88.7,16,88.6,16z"/>
	<path class="st0" d="M64.7,38.3c-0.1,0-0.2,0-0.3,0c-1,0-2.1,0-3.1,0c-0.2,0-0.3-0.1-0.5-0.2c-1.1-1.2-2.1-2.4-3.2-3.7
		c-0.2-0.2-0.3-0.3-0.5-0.2c-0.2,0-0.4,0-0.6,0c-0.2,0-0.3,0.1-0.3,0.3c0,1.1,0,2.3,0,3.4c0,0.4,0,0.4-0.4,0.4c-0.8,0-1.6,0-2.4,0
		c-0.2,0-0.3-0.1-0.3-0.3c0-3.7,0-7.3,0-11c0-0.2,0.1-0.3,0.3-0.3c2.3,0,4.6,0,6.9,0c1.3,0,2.3,0.5,3.1,1.6c0.4,0.7,0.6,1.4,0.6,2.3
		c0,0.7-0.2,1.3-0.6,1.8c-0.5,0.8-1.3,1.2-2.1,1.5h-0.1C61,34,60.9,34,61.1,34.2c0.4,0.5,0.9,1,1.4,1.5c0.7,0.8,1.4,1.6,2.1,2.3
		C64.6,38.2,64.6,38.2,64.7,38.3z M58.1,31.7c0.1,0,0.1,0,0.2,0c0.5,0,1.1,0,1.6,0c0.6-0.1,1-0.5,1.1-1c0.1-0.8-0.4-1.4-1.2-1.4
		c-1.1-0.1-2.2,0-3.3,0c-0.2,0-0.2,0.1-0.2,0.3c0,0.6,0,1.3,0,1.9c0,0.2,0.1,0.3,0.3,0.3C57,31.7,57.6,31.7,58.1,31.7z"/>
	<path class="st0" d="M56.6,23.2c-1.2,0-2.4,0-3.6,0c-0.1,0-0.2-0.1-0.3-0.2c-1.1-1.2-2.1-2.4-3.2-3.6c-0.2-0.2-0.3-0.3-0.6-0.3
		c-0.2,0-0.4,0-0.6,0c-0.2,0-0.3,0.1-0.3,0.3c0,1.1,0,2.2,0,3.4c0,0.4,0,0.4-0.4,0.4c-0.8,0-1.5,0-2.3,0c-0.2,0-0.3-0.1-0.3-0.3
		c0-3.6,0-7.3,0-10.9c0-0.2,0.1-0.3,0.3-0.3c2.1,0,4.2,0,6.3,0c0.9,0,1.9,0.2,2.7,0.7c0.9,0.6,1.5,1.5,1.5,2.7
		c0.1,0.9-0.1,1.8-0.7,2.6c-0.5,0.7-1.2,1.1-1.9,1.3c-0.5,0.2-0.5,0.1-0.1,0.5c1.1,1.2,2.2,2.4,3.3,3.6
		C56.5,23.1,56.5,23.1,56.6,23.2z M50,16.7c0.5,0,1,0,1.5,0c0.4,0,0.9-0.1,1.2-0.5s0.4-0.8,0.2-1.2c-0.2-0.5-0.6-0.7-1.1-0.8
		c-1.1,0-2.2,0-3.4,0c-0.2,0-0.3,0.1-0.3,0.3c0,0.6,0,1.2,0,1.9c0,0.2,0.1,0.3,0.3,0.3C49,16.7,49.5,16.7,50,16.7z"/>
	<path class="st0" d="M75.6,29.2c-0.9,0-1.7,0-2.5,0c-1.3,0-2.6,0-3.9,0c-0.2,0-0.3,0.1-0.3,0.3c0,0.5,0,0.9,0,1.4
		c0,0.3,0.1,0.3,0.3,0.3c1.6,0,3.1,0,4.7,0c0.5,0,0.9,0,1.4,0c0.2,0,0.2,0.1,0.2,0.2c0,0.7,0,1.4,0,2.1c0,0.2-0.1,0.2-0.3,0.2
		c-0.8,0-1.6,0-2.4,0c-1.2,0-2.4,0-3.6,0c-0.3,0-0.3,0-0.3,0.3c0,0.4,0,0.9,0,1.3c0,0.3,0.1,0.3,0.3,0.3c2,0,4,0,6.1,0
		c0.4,0,0.4,0,0.4,0.4c0,0.6,0,1.3,0,1.9c0,0.2-0.1,0.3-0.3,0.3c-3.1,0-6.2,0-9.3,0c-0.3,0-0.3-0.1-0.3-0.3c0-3,0-6.1,0-9.1
		c0-0.6,0-1.2,0-1.8c0-0.2,0.1-0.3,0.3-0.3c3.1,0,6.2,0,9.3,0c0.1,0,0.3,0,0.3,0.2C75.6,27.7,75.6,28.5,75.6,29.2z"/>
	<path class="st0" d="M15.7,32.5c0-1.8,0-3.6,0-5.4c0-0.3,0.1-0.3,0.3-0.3c3,0,6,0,9.1,0c0.4,0,0.4,0,0.4,0.3c0,0.6,0,1.3,0,1.9
		c0,0.2,0,0.3-0.3,0.3c-2,0-4.1,0-6.1,0c-0.3,0-0.4,0.1-0.3,0.3c0,0.4,0,0.9,0,1.3c0,0.3,0.1,0.4,0.3,0.3c1.9,0,3.8,0,5.7,0
		c0.7,0,0.6-0.1,0.6,0.6c0,0.5,0,1.1,0,1.6c0,0.4,0,0.4-0.3,0.4c-1.9,0-3.9,0-5.8,0c-0.4,0-0.4,0-0.4,0.4s0,0.8,0,1.2s0,0.4,0.4,0.4
		c2,0,4,0,5.9,0c0.4,0,0.4,0,0.4,0.4c0,0.6,0,1.2,0,1.8c0,0.2-0.1,0.3-0.3,0.3c-3.1,0-6.1,0-9.2,0c-0.2,0-0.3-0.1-0.3-0.3
		C15.7,36.2,15.7,34.3,15.7,32.5z"/>
	<path class="st0" d="M42.8,18.7c-0.1,0-0.2,0-0.3,0c-2,0-3.9,0-5.9,0c-0.4,0-0.4,0-0.4,0.4s0,0.8,0,1.2c0,0.3,0.1,0.4,0.3,0.4
		c0.8,0,1.6,0,2.5,0c1.2,0,2.4,0,3.7,0c0.2,0,0.3,0.1,0.3,0.3c0,0.7,0,1.3,0,2c0,0.2-0.1,0.3-0.3,0.3c-3.1,0-6.2,0-9.2,0
		c-0.2,0-0.3-0.1-0.3-0.3c0-1.9,0-3.8,0-5.6s0-3.5,0-5.3c0-0.4,0-0.4,0.3-0.4c3,0,6.1,0,9.1,0c0.3,0,0.3,0.1,0.3,0.3
		c0,0.6,0,1.3,0,1.9c0,0.2-0.1,0.3-0.3,0.3c-2,0-4,0-5.9,0c-0.5,0-0.5,0-0.5,0.5c0,0.4,0,0.7,0,1.1s0,0.4,0.4,0.4c1.9,0,3.9,0,5.8,0
		c0.4,0,0.4,0,0.4,0.4c0,0.6,0,1.3,0,1.9C42.8,18.5,42.8,18.6,42.8,18.7z"/>
	<path class="st0" d="M14.9,23.2c-0.1,0-0.2,0-0.3,0c-1,0-1.9,0-2.9,0c-0.2,0-0.3,0-0.4-0.2c-0.2-0.6-0.5-1.2-0.8-1.8
		c-0.1-0.2-0.2-0.3-0.4-0.3c-1.6,0-3.2,0-4.9,0c0,0-0.2,0.1-0.2,0.3c-0.2,0.6-0.5,1.2-0.8,1.9c-0.1,0.1-0.1,0.2-0.3,0.2
		c-1,0-2,0-2.9,0c0,0-0.1,0-0.2,0c0-0.1,0.1-0.2,0.1-0.2c1.2-2.7,2.4-5.5,3.6-8.2C4.9,14,5.3,13,5.7,12.1c0.1-0.2,0.2-0.3,0.4-0.3
		c1.1,0,2.3,0,3.4,0c0.2,0,0.3,0.1,0.4,0.2c1,2.2,1.9,4.4,2.9,6.6c0.7,1.5,1.3,3,2,4.5C14.9,23.1,14.9,23.1,14.9,23.2z M7.9,14.5
		C7.8,14.5,7.8,14.5,7.9,14.5c-0.1,0.1-0.2,0.2-0.3,0.4c-0.5,1.1-0.9,2.2-1.4,3.3c-0.1,0.2-0.1,0.3,0.2,0.3c0.9,0,1.8,0,2.7,0
		c0.4,0,0.4,0,0.3-0.4c-0.4-0.9-0.8-1.9-1.2-2.8C8.1,15,8,14.7,7.9,14.5z"/>
	<path class="st0" d="M84.9,23.2c-0.1,0-0.2,0-0.2,0c-0.9,0-1.9,0-2.8,0c-0.2,0-0.3-0.1-0.4-0.3c-0.2-0.6-0.5-1.2-0.8-1.8
		c-0.1-0.2-0.2-0.3-0.4-0.3c-1.6,0-3.3,0-4.9,0c-0.2,0-0.3,0.1-0.4,0.2c-0.3,0.6-0.5,1.3-0.8,1.9c-0.1,0.2-0.1,0.2-0.3,0.2
		c-1,0-1.9,0-2.9,0c0,0-0.1,0-0.2,0c0-0.1,0.1-0.2,0.1-0.3c0.9-2.1,1.9-4.2,2.8-6.3c0.7-1.5,1.3-3,2-4.6c0.1-0.3,0.2-0.4,0.5-0.3
		c1.1,0,2.2,0,3.3,0c0.2,0,0.4,0.1,0.5,0.3c1.2,2.8,2.5,5.6,3.7,8.4c0.4,0.9,0.8,1.8,1.2,2.7C84.8,23.1,84.8,23.2,84.9,23.2z
		 M77.7,18.5c0.5,0,0.9,0,1.4,0c0.3,0,0.3,0,0.2-0.3c-0.5-1.2-1-2.3-1.5-3.5c0-0.1-0.1-0.1-0.1-0.1l-0.1,0.1c-0.5,1.2-1,2.3-1.5,3.5
		c-0.1,0.2-0.1,0.3,0.2,0.3C76.8,18.5,77.3,18.5,77.7,18.5z"/>
	<path class="st0" d="M87.4,26.8c-0.1,0.3-0.2,0.5-0.3,0.7c-0.2,0.5-0.5,1.1-0.7,1.6c-0.1,0.1-0.1,0.2-0.3,0.2c-1.6,0-3.2,0-4.8,0
		c-0.3,0-0.6,0.1-0.9,0.2c-0.4,0.2-0.5,0.7-0.4,1c0.1,0.4,0.5,0.7,1,0.7c1,0,2,0,2.9,0c0.7,0,1.3,0.1,1.9,0.4
		c0.8,0.3,1.3,0.9,1.6,1.7c0.4,1.3,0.3,2.5-0.5,3.5c-0.6,0.8-1.5,1.3-2.5,1.3c-1.4,0.1-2.9,0.1-4.4,0.1c-0.8,0-1.6,0-2.4,0
		c-0.2,0-0.3-0.1-0.3-0.3c0-0.7,0-1.3,0-2c0-0.2,0.1-0.3,0.3-0.3c2,0,3.9,0,5.9,0c0.4,0,0.7-0.1,0.9-0.4c0.4-0.5,0.2-1.4-0.5-1.6
		c-0.2-0.1-0.4-0.1-0.6-0.1c-1.1,0-2.2,0-3.3-0.1c-1.5-0.1-2.6-0.9-2.9-2.4c-0.5-2.2,0.5-4.1,2.9-4.5c0.3-0.1,0.6-0.1,1-0.1
		c2,0,4,0,6.1,0C87.2,26.8,87.3,26.8,87.4,26.8z"/>
	<path class="st0" d="M98.9,26.8c-0.3,0.6-0.6,1.2-0.8,1.8c0,0,0,0.1-0.1,0.1c-0.1,0.5-0.4,0.6-0.8,0.6c-1.5,0-2.9,0-4.4,0
		c-0.3,0-0.6,0.1-0.8,0.2c-0.3,0.2-0.5,0.5-0.5,0.9s0.3,0.7,0.6,0.9c0.2,0.1,0.4,0.1,0.6,0.1c0.9,0,1.8,0,2.7,0
		c0.8,0,1.5,0.1,2.2,0.4c0.7,0.4,1.2,1,1.5,1.8c0.3,1.1,0.2,2.2-0.4,3.2c-0.4,0.7-1,1.1-1.7,1.3c-0.6,0.2-1.3,0.3-2,0.3
		c-1.9,0-3.8,0-5.6,0c-0.4,0-0.4,0-0.4-0.4c0-0.6,0-1.3,0-1.9c0-0.2,0.1-0.3,0.3-0.3c2,0,3.9,0,5.9,0c0.4,0,0.8-0.1,1-0.4
		c0.4-0.6,0.1-1.3-0.6-1.5c-0.2,0-0.4-0.1-0.5-0.1c-1.1,0-2.2,0-3.2,0c-1.6-0.1-2.9-1-3.1-2.7c-0.2-1.5,0.2-2.8,1.6-3.6
		c0.6-0.4,1.3-0.6,2-0.6C94.6,26.9,96.8,26.9,98.9,26.8C98.7,26.8,98.8,26.8,98.9,26.8z"/>
	<path class="st0" d="M26.1,38.3c0.6-0.6,1.1-1.2,1.6-1.8c1.1-1.3,2.3-2.6,3.4-3.8c0.2-0.2,0.2-0.3,0-0.5c-1.6-1.8-3.2-3.6-4.8-5.4
		c0,0,0-0.1-0.1-0.1c0.5,0,0.9,0,1.3,0c0.8,0,1.5,0,2.3,0c0.3,0,0.4,0.1,0.6,0.3c0.8,0.9,1.6,1.9,2.4,2.8c0.1,0.1,0.1,0.2,0.2,0.2
		c0.1,0.2,0.2,0.1,0.4,0c0.4-0.5,0.9-1,1.3-1.6c0.5-0.5,0.9-1.1,1.4-1.6c0.1-0.1,0.2-0.1,0.3-0.1c1.2,0,2.4,0,3.6,0
		c-0.2,0.2-0.3,0.3-0.4,0.5c-1.5,1.7-2.9,3.3-4.4,4.9c-0.1,0.1-0.1,0.2,0,0.4c1,1.1,1.9,2.2,2.8,3.2c0.7,0.8,1.4,1.6,2.2,2.5
		c-0.1,0-0.2,0-0.3,0c-1.1,0-2.3,0-3.4,0c-0.2,0-0.3-0.1-0.4-0.2c-0.9-1.1-1.9-2.2-2.8-3.3c-0.2-0.2-0.3-0.2-0.4,0
		c-0.9,1-1.8,2.1-2.7,3.1c-0.2,0.3-0.5,0.4-0.8,0.4c-1,0-2,0-3,0C26.4,38.3,26.3,38.3,26.1,38.3z"/>
	<path class="st0" d="M40.8,32.5c0-1.8,0-3.6,0-5.5c0-0.2,0-0.3,0.3-0.3c2.2,0,4.4,0,6.6,0c1.2,0,2.2,0.3,3.1,1.2
		c0.6,0.6,0.8,1.3,0.9,2.1c0.1,1.1-0.1,2.1-0.7,2.9c-0.6,0.7-1.3,1.2-2.2,1.3c-0.4,0.1-0.8,0.1-1.2,0.1c-1.1,0-2.2,0-3.3,0
		c-0.4,0-0.4,0-0.4,0.4c0,1.1,0,2.1,0,3.2c0,0.2-0.1,0.3-0.3,0.3c-0.8,0-1.6,0-2.4,0c-0.3,0-0.3-0.1-0.3-0.3
		C40.8,36.2,40.8,34.3,40.8,32.5z M45.8,31.9L45.8,31.9c0.5,0,1.1,0,1.6,0c0.4,0,0.7-0.1,0.9-0.4c0.4-0.4,0.5-0.9,0.3-1.4
		s-0.6-0.8-1.1-0.8c-1.1,0-2.3,0-3.4,0c-0.2,0-0.2,0.1-0.2,0.3c0,0.7,0,1.4,0,2.1c0,0.2,0.1,0.3,0.3,0.3
		C44.7,31.9,45.2,31.9,45.8,31.9z"/>
	<path class="st0" d="M71.9,11.7c0,0.8,0,1.6,0,2.4c0,0.2-0.1,0.2-0.3,0.2c-1,0-2,0-3,0c-0.5,0-1,0-1.5,0.2
		c-0.8,0.3-1.3,0.9-1.5,1.8c-0.3,1-0.2,2,0.2,2.9c0.4,0.9,1.2,1.3,2.2,1.4c0.6,0.1,1.3,0,2,0.1c0.1,0,0.2,0,0.3,0
		c0,0.1,0,0.1-0.1,0.2c-0.3,0.7-0.6,1.4-1,2.1c0,0.1-0.2,0.2-0.3,0.2c-1,0-2,0-2.9-0.3c-1.6-0.5-2.7-1.6-3.3-3.2
		c-0.4-1.2-0.4-2.3-0.2-3.5c0.2-1.4,0.9-2.6,2.1-3.5c0.6-0.5,1.4-0.8,2.1-0.9c0.7-0.1,1.4-0.1,2.1-0.2c0.9,0,1.8,0,2.7,0
		C71.7,11.7,71.8,11.7,71.9,11.7z"/>
	<path class="st0" d="M57.7,17.5c0-1.8,0-3.6,0-5.5c0-0.3,0.1-0.3,0.3-0.3c0.8,0,1.6,0,2.4,0c0.2,0,0.3,0,0.3,0.3c0,3.7,0,7.4,0,11
		c0,0.2-0.1,0.3-0.3,0.3c-0.8,0-1.7,0-2.5,0c-0.2,0-0.3-0.1-0.3-0.3C57.7,21.1,57.7,19.3,57.7,17.5z"/>
</g>
</svg>
