<?xml version="1.0" encoding="utf-8"?>
<!-- Generator: Adobe Illustrator 27.0.0, SVG Export Plug-In . SVG Version: 6.00 Build 0)  -->
<svg version="1.1" id="Layer_1" xmlns="http://www.w3.org/2000/svg" xmlns:xlink="http://www.w3.org/1999/xlink" x="0px" y="0px"
	 viewBox="0 0 100 50" style="enable-background:new 0 0 100 50;" xml:space="preserve">
<style type="text/css">
	.st0{fill:#828282;}
</style>
<g>
	<path class="st0" d="M40.4,20.8c0,0.2,0,0.3,0,0.5c-0.1,0-0.2,0-0.3,0c-3.2,0-6.4,0-9.7,0c-0.2,0-0.4-0.1-0.5-0.3
		c-1.1-1.6-2.2-3.2-3.3-4.9c-0.1-0.1-0.2-0.2-0.3-0.4c-0.4,0.4-0.7,0.8-1.1,1.2c-0.1,0.1-0.1,0.2-0.1,0.4c0,0.8,0,1.6,0,2.4
		c0,0.6,0.5,1.1,1.1,1.1c0.1,0,0.2,0,0.3,0c0,0.2,0,0.3,0,0.5c-1.4,0-2.8,0-4.2,0c0-0.2,0-0.3,0-0.5c0.1,0,0.1,0,0.2,0
		c0.4,0.1,0.6-0.1,0.8-0.4c0.2-0.2,0.3-0.5,0.3-0.8c0-2.6,0-5.2,0-7.7c0-0.6-0.5-1.1-1.1-1.2c-0.1,0-0.2,0-0.3,0c0-0.2,0-0.3,0-0.5
		c1.4,0,2.8,0,4.2,0c0,0.1,0,0.3,0,0.5c-0.1,0-0.1,0.1-0.2,0c-0.5,0-0.8,0.3-1.1,0.7C25,11.5,25,11.6,25,11.7c0,1.4,0,2.9,0,4.4
		c0.1-0.1,0.2-0.1,0.2-0.2c1.2-1.3,2.4-2.7,3.6-4c0.2-0.3,0.2-0.3,0-0.6s-0.5-0.6-0.9-0.5c-0.1,0-0.1,0-0.2,0c0-0.1,0-0.3,0-0.5
		c1.3,0,2.6,0,4,0c0,0.1,0,0.3,0,0.4c-0.8,0-1.3,0.5-1.8,1c-0.9,1-1.8,1.9-2.7,2.9c0,0,0,0,0,0.1c0.1,0.1,0.1,0.2,0.2,0.3
		c1.1,1.5,2.3,3,3.4,4.6c0.4,0.5,0.8,0.8,1.4,1.1c0.5,0.2,1,0.2,1.5-0.2c0.2-0.2,0.3-0.4,0.3-0.7c0-1.3,0-2.6,0-4
		c0-0.6-0.4-1.1-1.1-1.1h-0.1c0-0.1,0-0.3,0-0.4c0.8,0,1.7,0,2.5,0c0,0.1,0,0.3,0,0.4c0,1.6,0,3.2,0,4.8c0,0.9,0.6,1.4,1.4,1.3
		c0.4,0,0.7-0.2,1-0.5c0.1-0.1,0.2-0.3,0.2-0.4c0-1.4,0-2.9,0-4.3c0-0.4-0.5-0.9-0.9-0.9c-0.1,0-0.2,0-0.3,0c0-0.2,0-0.3,0-0.5
		c0.7,0,1.5,0,2.2,0c0.1,0.5,0.2,0.9,0.3,1.5c0.2-0.1,0.3-0.3,0.4-0.3c0.3-0.3,0.6-0.6,1-0.8c0.5-0.4,1.2-0.5,1.8-0.4
		c1,0.2,1.7,0.9,1.7,1.9c0,1.3,0,2.5,0,3.8c0,0.5,0.2,0.8,0.6,1c0.2,0.1,0.4,0.1,0.6,0.2c0,0.1,0,0.3,0,0.4c-1.2,0-2.4,0-3.6,0
		c0-0.2,0-0.3,0-0.4c0.2,0,0.4-0.1,0.6-0.1c0.2-0.1,0.3-0.2,0.4-0.3c0.1-0.1,0.2-0.3,0.2-0.5c0-1.3,0-2.6,0-3.9
		c0-0.7-0.5-1.1-1.2-1.1c-0.9,0-1.6,0.5-2.2,1.2c-0.1,0.1-0.2,0.4-0.2,0.6c0,1.1,0,2.1,0,3.2c0,0.6,0.4,1,1,1
		C40.2,20.8,40.3,20.8,40.4,20.8z"/>
	<path class="st0" d="M8.4,21.4c-1.3-3.2-2.6-6.3-3.9-9.5c0,0,0,0-0.1,0c0,0.1,0,0.1,0,0.2c0,2.5,0,5,0,7.6c0,0.6,0.5,1.1,1.1,1.1
		c0.1,0,0.2,0,0.3,0c0,0.2,0,0.3,0,0.5c-1.1,0-2.3,0-3.4,0c0-0.2,0-0.3,0-0.5c0.1,0,0.1,0,0.2,0c0.5,0,0.8-0.3,1.1-0.6
		c0.1-0.1,0.1-0.3,0.1-0.5c0-1.7,0-3.4,0-5.1c0-0.9,0-1.8,0-2.6c0-0.6-0.5-1.1-1.1-1.2c-0.1,0-0.2,0-0.3,0c0-0.1,0-0.1,0-0.2
		c0-0.1,0-0.2,0-0.2c0.3-0.1,2.1-0.1,3.2-0.1c1.1,2.8,2.2,5.5,3.3,8.3H9c1.2-2.8,2.3-5.5,3.5-8.3c1,0,1.9,0,2.9,0c0,0.2,0,0.3,0,0.5
		c-0.1,0-0.1,0-0.2,0c-0.4,0-0.7,0.2-0.9,0.4S14,11.6,14,11.9c0,1,0,2,0,3c0,1.6,0,3.1,0,4.7c0,0.7,0.5,1.2,1.2,1.2h0.1
		c0,0.2,0,0.3,0,0.5c-1.4,0-2.8,0-4.2,0c0-0.2,0-0.3,0-0.5c0.1,0,0.1,0,0.2,0c0.4,0.1,0.6-0.1,0.9-0.4c0.2-0.2,0.3-0.4,0.3-0.7
		c0-2.4,0-4.9,0-7.3c0-0.1,0-0.2-0.1-0.3C11.1,15.2,9.7,18.3,8.4,21.4L8.4,21.4z"/>
	<path class="st0" d="M84.3,29c0.1,0.5,0.2,0.9,0.3,1.4c0.1-0.1,0.2-0.2,0.3-0.3c0.2-0.2,0.5-0.5,0.7-0.7c0.4-0.3,0.9-0.5,1.4-0.6
		c1.4-0.2,2.4,0.7,2.4,2c0,1.2,0,2.5,0,3.7c0,0.4,0.2,0.7,0.5,0.9c0.2,0.1,0.4,0.1,0.7,0.2c0,0.1,0,0.2,0,0.4c-1.2,0-2.4,0-3.6,0
		c0-0.2,0-0.3,0-0.4c0.3,0,0.6-0.1,0.9-0.3c0.2-0.2,0.3-0.4,0.3-0.7c0-1.3,0-2.5,0-3.8c0-0.7-0.6-1.3-1.3-1.2
		c-0.8,0.1-1.4,0.5-1.9,1c-0.2,0.2-0.3,0.4-0.3,0.7c0,1.1,0,2.1,0,3.2c0,0.6,0.4,1,1,1.1h0.1c0,0.1,0,0.1,0,0.2c0,0.1,0,0.1,0,0.2
		c-2,0-4,0-6.1,0c-0.1-0.4-0.1-0.9-0.2-1.4c-0.2,0.2-0.2,0.3-0.3,0.4c-0.4,0.4-0.8,0.8-1.3,1c-1.1,0.5-2.3-0.1-2.6-1.2
		c-0.2-0.9,0.1-1.7,0.8-2.2c0.4-0.3,0.9-0.4,1.5-0.5c0.5-0.1,1.1-0.2,1.6-0.3c0.1,0,0.2,0,0.2-0.1c0-0.5,0.1-1,0-1.4
		s-0.4-0.8-0.8-0.9c-0.5-0.2-0.9-0.2-1.4-0.1c-0.6,0.1-0.8,0.6-0.8,1.2c0,0.2,0.1,0.5,0.2,0.7c-0.4,0.1-0.4,0.1-0.7-0.3
		c-0.2-0.3-0.4-0.7-0.7-1v-0.1c0.1-0.1,0.2-0.2,0.2-0.2c0.7-0.5,1.4-0.8,2.3-0.9c0.5,0,1,0,1.6,0.2c1,0.3,1.5,1,1.5,2
		c0,1.2,0,2.4,0,3.6c0,0.6,0.4,1,1,1c0.1,0,0.2,0,0.4,0c0.7,0,1.1-0.4,1.1-1.1c0-1.3,0-2.6,0-3.9c0-0.7-0.4-1.1-1.1-1.1h-0.1
		c0-0.1,0-0.3,0-0.4C82.8,29,83.5,29,84.3,29z M79.5,32.3c-0.7,0.2-1.4,0.4-2.1,0.6c-0.6,0.2-0.8,0.7-0.8,1.3c0,0.7,0.7,1.3,1.4,1.1
		c0.6-0.2,1.1-0.6,1.4-1.1c0,0,0.1-0.1,0.1-0.2C79.5,33.5,79.5,32.9,79.5,32.3z"/>
	<path class="st0" d="M23.9,29.8c-0.1-0.1-0.2-0.2-0.2-0.4c-0.5-0.8-0.7-1.7-0.5-2.6c0.2-1,0.9-1.6,1.9-1.8c0.7-0.1,1.3,0,2,0.1
		c0.3,0.1,0.5,0.1,0.8,0.1c0.1,0,0.3,0,0.4-0.1c0.2,0,0.3-0.1,0.5-0.1c0,0.9,0,1.7,0,2.6c-0.1,0-0.3,0-0.4,0
		c-0.1-0.6-0.4-1.1-0.9-1.5c-0.7-0.6-1.5-0.9-2.4-0.7c-1,0.2-1.4,1-1.2,2c0.2,0.7,0.6,1.1,1.2,1.4c0.2,0.1,0.4,0.2,0.6,0.4
		c1.4,1.3,2.8,2.7,4.2,4c0.1,0.1,0.1,0.1,0.2,0.2c0.3-0.5,0.5-1.1,0.6-1.7c0-0.2,0-0.4,0-0.7c0-0.8-0.5-1.4-1.3-1.6
		c-0.1,0-0.3,0-0.4-0.1c0-0.1,0-0.1,0-0.2s0-0.1,0-0.2c0.3-0.1,3.4-0.1,3.9,0c0,0.1,0,0.1,0,0.2s0,0.1,0,0.2c-0.6,0-1,0.4-1.3,0.9
		c-0.1,0.1-0.1,0.3-0.2,0.5c0,1.1-0.4,2-0.9,2.9l0.1,0.1c0.7,0.5,1.3,1.1,2,1.6c0.1,0.1,0.3,0.1,0.4,0.1c0.1,0,0.2,0,0.4,0
		c0,0.2,0,0.3,0,0.5C32,36,30.6,36,29.5,34.8c-0.1,0.1-0.3,0.2-0.4,0.3c-1.2,0.9-2.6,1.3-4.1,1c-1.8-0.4-3.1-2.2-2.5-4.3
		c0.2-0.8,0.6-1.4,1.2-1.9C23.7,30,23.8,29.9,23.9,29.8z M24.1,30c0,0.1-0.1,0.1-0.1,0.2c-0.9,1-0.9,2.5-0.2,3.7
		c1.1,1.6,3.2,2,4.9,1c0.1-0.1,0.2-0.1,0.2-0.2C27.3,33.2,25.7,31.6,24.1,30z"/>
	<path class="st0" d="M66.7,35.6c0,0.2,0,0.3,0,0.5c-1.2,0-2.4,0-3.6,0c0-0.1,0-0.1,0-0.2c0-0.1,0-0.2,0-0.3c0.3,0,0.6-0.1,0.9-0.4
		c0.2-0.2,0.3-0.4,0.3-0.6c0-1.3,0-2.6,0-3.9c0-0.6-0.5-1.1-1.1-1.1c-0.8,0-1.4,0.4-1.9,1C61,30.8,61,31,61,31.3c0,1.1,0,2.2,0,3.3
		c0,0.5,0.4,1,0.9,1c0.1,0,0.1,0,0.2,0c0,0.1,0,0.3,0,0.4c-0.3,0.1-2.8,0.1-3.6,0c0-0.1,0-0.3,0-0.5c0.4,0,0.7-0.1,0.9-0.4
		c0.1-0.2,0.2-0.3,0.2-0.6c0-1.3,0-2.6,0-3.9c0-0.7-0.5-1.2-1.3-1.1c-0.7,0.1-1.3,0.4-1.8,1c-0.2,0.2-0.2,0.4-0.2,0.7
		c0,1.1,0,2.2,0,3.3c0,0.6,0.4,1,0.9,1c0.1,0,0.1,0,0.2,0c0,0.1,0,0.3,0,0.5c-1.2,0-2.4,0-3.6,0c0-0.1,0-0.3,0-0.5
		c0.4,0,0.7-0.1,0.9-0.4c0.1-0.2,0.2-0.3,0.2-0.5c0-1.4,0-2.8,0-4.3c0-0.5-0.4-0.9-0.9-1c-0.1,0-0.2,0-0.3,0c0-0.1,0-0.2,0-0.2
		c0-0.1,0-0.1,0-0.2c0.7,0,1.4,0,2.1,0c0.1,0.4,0.2,0.8,0.3,1.3c0.1-0.1,0.2-0.1,0.2-0.2c0.3-0.3,0.5-0.5,0.8-0.8
		c0.5-0.5,1.2-0.6,1.9-0.5s1.2,0.5,1.5,1.2c0,0.1,0,0.1,0,0.2c0,0,0,0.1,0.1,0.1c0.1-0.1,0.2-0.1,0.2-0.2c0.3-0.3,0.6-0.5,0.9-0.8
		c0.5-0.4,1.2-0.5,1.8-0.5c0.9,0.1,1.6,0.9,1.6,1.9c0,1.2,0,2.4,0,3.6C65.5,35,66,35.6,66.7,35.6z"/>
	<path class="st0" d="M70.3,39.1c0,0.1,0,0.3,0,0.5c-1.3,0-2.5,0-3.8,0c0-0.2,0-0.3,0-0.5c0.1,0,0.1,0,0.2,0c0.6,0,1-0.4,1-1.1
		c0-2.5,0-4.9,0-7.4c0-0.7-0.3-1.1-1.1-1.1h-0.1c0-0.1,0-0.3,0-0.5c0.8,0,1.5,0,2.3,0c0.1,0.4,0.2,0.9,0.2,1.4
		c0.1-0.2,0.2-0.3,0.3-0.4c0.6-0.9,1.5-1.3,2.6-1.2c1.1,0.1,1.8,0.6,2.2,1.6c0.6,1.4,0.6,2.8-0.1,4.2c-0.6,1.3-1.8,1.9-3.2,1.6
		c-0.6-0.1-1.1-0.4-1.5-0.9c-0.1-0.1-0.1-0.2-0.3-0.4c0,0.2,0,0.3,0,0.4c0,0.9,0,1.7,0,2.6c0,0.7,0.4,1.1,1.1,1.1
		C70.2,39.1,70.2,39.1,70.3,39.1z M69.1,32.7L69.1,32.7c0,0.3,0,0.6,0,0.9c0,0.2,0,0.4,0.1,0.5c0.3,0.9,1.1,1.6,2.1,1.5
		c1,0,1.6-0.6,1.8-1.6c0.1-0.3,0.1-0.6,0.1-0.9c0.1-0.7,0-1.3-0.1-2C73,30.5,72.6,30,72,29.8c-0.8-0.3-1.6-0.1-2.2,0.5
		c-0.5,0.5-0.8,1.1-0.7,1.8C69.1,32.2,69.1,32.5,69.1,32.7z"/>
	<path class="st0" d="M45.1,25c0,1.4,0,2.7,0,4c-0.1,0-0.2,0-0.4,0c0-0.1-0.1-0.2-0.1-0.3c-0.1-0.8-0.5-1.6-1.1-2.2
		c-1-1-2.1-1.3-3.4-0.9c-0.8,0.2-1.3,0.7-1.6,1.5c-0.3,0.7-0.5,1.4-0.5,2.2c0,1,0,1.9,0.1,2.9c0.1,1.7,1.6,3.1,3.2,3.2
		c0.4,0,0.9,0,1.4,0c1-0.1,1.8-0.7,2.3-1.5c0.1-0.2,0.3-0.4,0.4-0.7c0.1,0,0.3,0,0.5,0c0,0.1,0,0.2-0.1,0.3
		c-0.6,1.7-2.3,2.8-4.1,2.8c-0.7,0-1.4-0.1-2.1-0.3c-1.4-0.5-2.4-1.5-2.9-2.9c-0.8-1.8-0.7-3.7,0.1-5.5c0.9-1.9,2.4-2.8,4.5-2.8
		c0.5,0,1,0.2,1.5,0.3c0.3,0.1,0.6,0.1,0.8,0.2c0.3,0.1,0.6,0,0.9-0.2C44.7,25.1,44.9,25,45.1,25z"/>
	<path class="st0" d="M46.7,32.6c0.1-0.4,0.1-0.8,0.2-1.2c0.4-1.6,1.8-2.7,3.4-2.7c1.6,0,3,1.1,3.4,2.7c0.2,0.8,0.2,1.5,0,2.3
		c-0.4,1.6-1.8,2.6-3.4,2.6c-1.6,0-3.1-1.2-3.5-2.8C46.8,33.3,46.8,32.9,46.7,32.6z M48.1,32.4c0.1,0.6,0.1,1,0.1,1.5
		c0.2,1,0.8,1.7,1.7,1.8c1.2,0.1,2.3-0.4,2.5-2c0-0.2,0-0.4,0-0.5c0.1-0.7,0-1.5-0.1-2.2c-0.2-0.8-0.7-1.3-1.5-1.5
		c-0.2,0-0.5-0.1-0.7,0c-1,0-1.6,0.5-1.9,1.5C48.2,31.4,48.2,31.9,48.1,32.4z"/>
	<path class="st0" d="M92.3,39.8c-0.2-0.1-0.4-0.2-0.6-0.3c0.1-0.1,0.1-0.2,0.1-0.3c0.5-1.1,1-2.2,1.6-3.3c0.1-0.2,0.1-0.4,0-0.7
		c-0.7-1.6-1.5-3.1-2.2-4.7c-0.3-0.5-0.7-0.9-1.3-1.1c0-0.1,0-0.3,0-0.5c1.2,0,2.5,0,3.7,0c0,0.1,0,0.1,0,0.2s0,0.2,0,0.3
		c-0.1,0-0.1,0-0.2,0c-0.5,0-0.7,0.3-0.8,0.6c0,0.1,0,0.2,0,0.3c0.5,1.2,1,2.4,1.6,3.7c0.1-0.1,0.1-0.2,0.2-0.3
		c0.5-1.1,0.9-2.2,1.4-3.2c0.2-0.4-0.1-1-0.6-1.1c-0.1,0-0.2,0-0.3,0c0-0.2,0-0.3,0-0.4c0.9,0,1.9,0,2.8,0c0,0.1,0,0.3,0,0.4
		c-0.7,0.1-1.1,0.6-1.3,1.1c-0.9,2-1.8,4-2.7,6C93.3,37.7,92.8,38.7,92.3,39.8z"/>
	<path class="st0" d="M59.8,24.9c-0.2-0.1-0.4-0.2-0.6-0.3c0.1-0.1,0.1-0.3,0.2-0.4c0.5-1.1,1-2.2,1.6-3.3c0.1-0.2,0.1-0.4,0-0.7
		c-0.7-1.5-1.5-3.1-2.2-4.6c-0.3-0.6-0.7-1-1.3-1.1c0-0.1,0-0.3,0-0.4c0.3-0.1,3.3-0.1,3.8,0c0,0.1,0,0.3,0,0.4h-0.1
		c-0.5,0-0.7,0.3-0.8,0.6c0,0.1,0,0.2,0,0.3c0.5,1.2,1,2.4,1.6,3.6c0,0,0,0,0.1,0.1c0-0.1,0.1-0.2,0.1-0.3c0.5-1.1,0.9-2.1,1.4-3.2
		c0.2-0.5-0.1-1-0.6-1.1c-0.1,0-0.2,0-0.3,0c0-0.2,0-0.3,0-0.5c0.9,0,1.9,0,2.8,0c0,0.2,0,0.3,0,0.5c-0.7,0.1-1,0.6-1.3,1.1
		c-0.9,2-1.8,4-2.7,6c-0.4,0.9-0.8,1.9-1.3,2.8C59.9,24.6,59.9,24.7,59.8,24.9z"/>
	<path class="st0" d="M57.2,17c-1.5,0.1-3.1,0.2-4.7,0.4c-0.2,1,0.6,2.3,1.6,2.7c1.1,0.4,2.4,0.3,3.2-1.1c0.1,0,0.3,0,0.4,0
		c-0.2,1.5-1.6,2.6-3.2,2.5c-1.1-0.1-1.9-0.5-2.5-1.4c-1-1.4-0.9-3.4,0.1-4.8c0.8-1.1,2-1.6,3.2-1.3c1.1,0.3,1.8,1.2,1.9,2.3
		c0,0.2,0,0.4,0,0.6C57.3,16.9,57.2,16.9,57.2,17z M56.1,16.6c0-0.2,0-0.3,0-0.4c0.1-1.2-0.5-1.8-1.7-1.7c-1.1,0.1-2,1.2-1.9,2.3
		C53.7,16.8,54.9,16.7,56.1,16.6z"/>
	<path class="st0" d="M50.3,16.2c-0.1,0-0.3,0-0.4,0c0-0.1-0.1-0.3-0.1-0.4c-0.4-1-1.4-1.6-2.4-1.4c-0.5,0.1-0.8,0.3-0.9,0.7
		c-0.1,0.4,0,0.8,0.4,1.1c0.2,0.1,0.4,0.2,0.7,0.3c0.5,0.2,1.1,0.4,1.6,0.7c0.3,0.1,0.5,0.2,0.8,0.4c0.8,0.5,1.1,1.4,0.8,2.3
		c-0.2,0.8-0.9,1.4-1.8,1.5c-0.5,0-0.9,0-1.4-0.1c-0.3-0.1-0.5-0.2-0.8-0.2C46.5,21,46.3,21,46,21.2c-0.1,0.1-0.2,0.1-0.4,0.1
		c0-0.9,0-1.7,0-2.5c0.1,0,0.3,0,0.4,0c0.2,0.9,0.7,1.5,1.5,1.9c0.6,0.3,1.2,0.4,1.8,0.2c0.8-0.2,1-1.1,0.5-1.6
		c-0.2-0.2-0.5-0.3-0.7-0.5c-0.6-0.3-1.2-0.5-1.9-0.8c-0.3-0.2-0.6-0.3-0.9-0.6c-0.7-0.6-0.8-1.3-0.5-2.1c0.2-0.8,0.8-1.1,1.6-1.2
		c0.5-0.1,0.9,0,1.4,0.1c0.2,0.1,0.4,0.1,0.6,0.2c0.2,0.1,0.5,0.1,0.7-0.1c0.1-0.1,0.2-0.1,0.4-0.1C50.3,14.8,50.3,15.5,50.3,16.2z"
		/>
	<path class="st0" d="M22,19c-0.3,1.4-1.4,2.4-2.8,2.5c-1.8,0.1-3.1-0.8-3.5-2.5c-0.3-1-0.2-2.1,0.2-3c1.1-2.6,4.3-2.5,5.6-1
		c-0.1,0.2-0.3,0.5-0.4,0.7s-0.3,0.4-0.4,0.7c-0.1,0.2-0.3,0.3-0.5,0.2c0-0.2,0-0.4,0-0.6c0-1.1-0.6-1.6-1.6-1.4
		c-0.7,0.1-1.1,0.4-1.4,1c-0.5,1.1-0.6,2.2-0.1,3.3c0.4,0.9,1.2,1.4,2.2,1.4c0.3,0,0.6,0,0.8,0c0.6-0.1,1.1-0.5,1.5-1
		C21.6,18.9,21.7,18.9,22,19z"/>
	<path class="st0" d="M35.5,11.5c0,0.6-0.4,1-1,0.9c-0.5,0-0.9-0.5-0.9-0.9c0-0.5,0.5-0.9,1-0.9S35.5,10.9,35.5,11.5z"/>
</g>
</svg>
