<?xml version="1.0" encoding="utf-8"?>
<!-- Generator: Adobe Illustrator 27.0.0, SVG Export Plug-In . SVG Version: 6.00 Build 0)  -->
<svg version="1.1" id="Layer_1" xmlns="http://www.w3.org/2000/svg" xmlns:xlink="http://www.w3.org/1999/xlink" x="0px" y="0px"
	 viewBox="0 0 100 50" style="enable-background:new 0 0 100 50;" xml:space="preserve">
<style type="text/css">
	.st0{fill:#828282;}
</style>
<g>
	<path class="st0" d="M12.3,30.3c1.5,0.9,3,1.8,4.5,2.7c-0.1,0.1-0.2,0.1-0.3,0.2c-0.6,0.3-1.1,0.6-1.7,0.9c-0.2,0.1-0.1,0.1-0.3,0
		c-1.4-1.1-2.8-2.2-4.2-3.3c-0.1-0.1-0.2-0.1-0.4-0.1c-0.9,0-1.8,0-2.7-0.2C4.4,30,2.4,27.9,2,25.2c-0.3-1.6-0.1-3.1,0.5-4.6
		s1.7-2.5,3.2-3.1c1.3-0.6,2.6-0.8,4-0.7c1.1,0,2.2,0.2,3.2,0.7c2.1,1,3.4,2.6,3.7,4.9c0.2,1.4,0.1,2.8-0.5,4.1
		c-0.7,1.7-1.9,2.9-3.6,3.6C12.5,30.2,12.4,30.2,12.3,30.3z M14,23.5c0-0.9-0.1-1.8-0.4-2.7c-0.4-1-1-1.8-1.9-2.4
		c-0.7-0.4-1.4-0.6-2.1-0.6c-1.1,0-2,0.2-2.9,0.9c-0.7,0.5-1.2,1.2-1.5,2c-0.3,0.7-0.5,1.5-0.5,2.3c-0.1,1-0.1,1.9,0.2,2.9
		c0.2,0.9,0.6,1.7,1.1,2.3c0.8,0.9,1.8,1.4,3,1.5c0.9,0.1,1.7-0.1,2.5-0.5c1.1-0.6,1.8-1.6,2.2-2.8C13.9,25.5,14,24.5,14,23.5z"/>
	<path class="st0" d="M61.6,23.8c1.6,2.3,3.2,4.5,4.9,6.7c-0.2,0-0.4,0-0.5,0c-0.9-0.1-1.8-0.1-2.7,0c-0.2,0-0.2,0-0.3-0.2
		c-0.8-1.3-1.6-2.5-2.5-3.8c-0.5-0.8-1.1-1.6-1.7-2.3c0-0.1-0.1-0.1-0.2-0.2c-0.1,0-0.3,0-0.4,0c0,0,0,0,0,0.1s0,0.2,0,0.2
		c0,1.9,0,3.9,0.1,5.8c0,0.1,0,0.2,0,0.3c-0.3,0-0.6-0.1-1-0.1c-0.5,0-1,0-1.5,0.1c-0.2,0-0.2,0-0.2-0.2c0-1.4,0.1-2.8,0.1-4.2
		c0-2.2,0-4.3,0-6.5c0-0.8-0.1-1.7-0.1-2.5v-0.1c0.1,0,0.2,0,0.4,0c1.1,0.1,2.1,0.1,3.2,0c0.8,0,1.6-0.1,2.5,0c0.7,0,1.4,0.2,2,0.6
		c1,0.7,1.4,1.7,1.3,2.9c-0.1,1.5-1,2.4-2.3,3C62.3,23.6,62,23.7,61.6,23.8z M58.3,20.6c0,0.8,0,1.6,0,2.4c0,0.2,0,0.2,0.2,0.2
		c0.5,0,1.1,0.1,1.6,0c1-0.1,1.8-0.6,2.1-1.6c0.2-0.6,0.2-1.3,0.1-1.9c-0.1-0.6-0.5-1.1-1-1.4C61,18.1,60.6,18,60.2,18
		c-0.5,0-1.1,0-1.6,0.1c-0.2,0-0.2,0-0.2,0.2C58.3,19,58.3,19.8,58.3,20.6z"/>
	<path class="st0" d="M31.3,30.5c-0.3,0-0.6-0.1-0.8-0.1c-0.6-0.1-1.2,0-1.9,0.1c-0.3,0-0.3,0-0.4-0.2c-0.5-1.2-0.9-2.5-1.4-3.7
		c0,0,0-0.1-0.1-0.1c0-0.1-0.1-0.2-0.3-0.2c-1.2-0.1-2.3-0.1-3.5,0c-0.4,0-0.8,0-1.2,0c-0.1,0-0.2,0.1-0.2,0.2
		c-0.5,1.3-1.1,2.6-1.5,3.9c0,0,0,0,0,0.1s-0.1,0.1-0.2,0.1s-0.2,0-0.3-0.1c-0.4-0.1-0.7-0.1-1.1,0c-0.1,0-0.2,0-0.3,0
		c0-0.1,0.1-0.2,0.1-0.3c1.4-3,2.7-6,4.1-9c0.6-1.3,1.2-2.6,1.6-4c0-0.1,0.1-0.3,0.1-0.3c0.1-0.1,0.2,0,0.4,0c0.3,0,0.5,0,0.8,0
		c0.1,0,0.2,0,0.2,0.1c0.8,2.3,1.8,4.6,2.8,6.9c0.9,2.1,1.9,4.3,2.9,6.4C31.3,30.3,31.3,30.4,31.3,30.5z M24.2,20.1
		c-0.7,1.6-1.4,3.2-2,4.8c0.8,0.1,3.2,0.1,3.9,0C25.4,23.4,24.8,21.8,24.2,20.1z"/>
	<path class="st0" d="M53.5,30.5c-0.3,0-0.6-0.1-0.9-0.1c-0.6-0.1-1.3,0-1.9,0.1c-0.3,0-0.3,0-0.3-0.2c-0.5-1.3-1-2.6-1.5-3.8
		c-0.1-0.2-0.2-0.2-0.3-0.2c-1.1,0-2.2-0.1-3.3,0c-0.4,0-0.8,0-1.2,0c-0.1,0-0.2,0.1-0.2,0.2c-0.5,1.1-0.9,2.2-1.3,3.4
		c-0.1,0.2-0.1,0.4-0.2,0.6c0,0.1-0.1,0.1-0.2,0.1c-0.1,0-0.2,0-0.3-0.1c-0.4-0.1-0.7-0.1-1.1,0c-0.1,0-0.2,0-0.3,0
		c0-0.1,0.1-0.2,0.1-0.3c1.2-2.6,2.3-5.2,3.5-7.7c0.7-1.5,1.4-3.1,2-4.6c0.1-0.3,0.2-0.6,0.3-0.8c0.1-0.2,0.1-0.2,0.3-0.2
		c0.3,0.1,0.6,0.1,0.9,0c0.2,0,0.2,0,0.3,0.2c0.4,1.2,0.9,2.4,1.4,3.5c1,2.4,2,4.7,3.1,7.1c0.4,0.9,0.8,1.7,1.2,2.6
		C53.4,30.3,53.5,30.4,53.5,30.5z M48.3,25c-0.6-1.6-1.2-3.2-1.8-4.8l0,0c-0.7,1.6-1.3,3.2-2,4.8C45.7,25.1,46.9,25.1,48.3,25z"/>
	<path class="st0" d="M41.2,17c-0.1,0.5-0.2,0.9,0,1.4c-0.1,0.1-0.2,0-0.3,0c-1.1-0.1-2.3-0.1-3.4-0.1h-0.1c-0.2,0-0.2,0-0.2,0.2
		c0,0.7,0,1.5,0,2.2c0,2.7,0,5.3,0,8c0,0.6,0.1,1.1,0.1,1.7v0.1c-0.9-0.1-1.8-0.2-2.7,0c-0.1-0.1,0-0.2,0-0.2
		c0.1-1.1,0.1-2.1,0.2-3.2c0-1,0-2,0-2.9c0-1.8,0-3.7,0-5.5c0-0.4,0-0.4-0.4-0.4c-1.1,0-2.2,0-3.4,0.1c-0.1,0-0.2,0-0.4,0
		c0.1-0.5,0.1-1,0-1.4C34.1,17.1,37.6,17.1,41.2,17z"/>
	<path class="st0" d="M54.8,32.9c0,0.7,0,1.3,0,2.1c0.4-0.3,0.8-0.2,1.2-0.2c0.9,0,1.8,0,2.7,0c0.4,0,0.7,0.1,1,0.4
		c0.2,0.2,0.4,0.5,0.4,0.8c0,0.2,0,0.3,0,0.5c0,0.1,0,0.2,0.2,0.2c0.3,0,0.7,0,1,0c0.4,0,0.8,0,1.2,0c0.1,0,0.2,0,0.2-0.2
		c0-0.4,0-0.3-0.3-0.4c-0.2,0-0.4,0-0.6,0c-0.2,0-0.2,0-0.2-0.2c0-0.1,0-0.2,0-0.4c0-0.3,0.1-0.5,0.3-0.6c0.2-0.2,0.4-0.3,0.6-0.4
		c0.3-0.2,0.6-0.3,1-0.4c0,0.2,0,0.4,0,0.6c0,0.6,0,1.1,0,1.7c0,0.2,0,0.2,0.2,0.2s0.5,0,0.7,0s0.2,0,0.2-0.2c0-0.6,0-1.2,0-1.8
		c0-0.2,0-0.4,0-0.6c0-0.1,0-0.1-0.1-0.2c-0.1-0.1-0.1-0.1,0-0.2c0.1-0.1,0.2-0.2,0.3-0.2c0.2-0.1,0.3-0.2,0.5-0.4
		c0.1,0.1,0,0.1,0,0.2c0,1.3,0,2.6,0,3.9v0.1c0,0.1,0,0.1-0.1,0.1s-0.1,0-0.2,0c-3.8,0-7.7,0-11.5,0c-0.3,0-0.3,0-0.4,0.3
		c-0.1,0.7-1.1,1.2-1.7,0.7c0,0-0.1,0-0.1-0.1c0,0-0.1-0.1-0.1-0.2c0-0.1,0.1-0.1,0.2-0.1c0.1,0,0.2,0,0.2,0c0.4,0,0.8-0.2,0.8-0.7
		c0-0.7,0-1.3,0-2c0-0.1-0.1-0.1-0.1-0.2c-0.3,0-0.3,0-0.2-0.1c0.3-0.2,0.6-0.4,0.9-0.6c0,0.1,0,0.2,0,0.2c0,0.6,0,1.2,0,1.9
		c0,0.2,0,0.2,0.2,0.2s0.4,0,0.6,0c0.1,0,0.2,0,0.2-0.2c0-0.8,0-1.6,0-2.4c0-0.1,0-0.1-0.1-0.2c-0.1-0.2-0.1-0.2,0-0.4
		C54.2,33.2,54.5,33,54.8,32.9C54.7,32.9,54.8,32.9,54.8,32.9z M57,36.5c0.7,0,1.4,0,2,0c0.1,0,0.2,0,0.2-0.2s0-0.3,0-0.5
		s-0.1-0.4-0.3-0.4c-0.1,0-0.2,0-0.4,0c-1,0-2,0-3,0c-0.1,0-0.3,0-0.4,0c-0.2,0-0.4,0.2-0.4,0.4s0,0.3,0,0.5s0,0.2,0.2,0.2
		C55.6,36.5,56.3,36.5,57,36.5z M62,35.4c0.5,0.1,0.5,0.1,0.5-0.3l0,0C62.2,35.2,62.1,35.2,62,35.4z"/>
	<path class="st0" d="M27.4,32.7c0.3,0,0.6,0.1,0.9,0c0.1,0,0.1,0.1,0.1,0.1c0.1,0.4,0.2,0.7,0.3,1.1c0.2,0.6,0.4,1.3,0.7,1.9
		c0,0,0,0.1,0.1,0.1c0.1-0.3,0.2-0.6,0.3-0.9c0.3-0.7,0.5-1.5,0.7-2.2c0-0.2,0.1-0.2,0.2-0.2s0.2,0,0.3,0c0.1,0,0.2,0,0.2,0.1
		c0.1,0.4,0.2,0.7,0.3,1.1c0.2,0.7,0.4,1.3,0.7,1.9c0,0,0,0.1,0.1,0.1c0.1-0.1,0.1-0.2,0.1-0.3c0.3-0.9,0.6-1.8,0.9-2.8
		c0.1-0.2,0.1-0.2,0.3-0.2c0.1,0,0.3,0,0.4,0c0,0.1,0,0.1,0,0.2c-0.5,1.4-1,2.7-1.5,4.1C32.4,37,32.4,37,32.2,37
		c-0.1,0-0.3,0.1-0.4,0s-0.1-0.2-0.1-0.4c-0.3-0.9-0.6-1.8-0.9-2.6c0-0.1-0.1-0.1-0.1-0.2c-0.1,0-0.1,0.1-0.1,0.2
		c-0.3,0.9-0.7,1.9-1,2.8v0.1c0,0.1-0.1,0.1-0.1,0.1l0,0c-0.1,0-0.3,0.1-0.4,0s-0.1-0.3-0.2-0.4c-0.4-1.3-0.9-2.6-1.4-3.9
		C27.4,32.9,27.4,32.8,27.4,32.7z"/>
	<path class="st0" d="M45.6,37.2c0-0.3,0-0.5,0.1-0.8c0-0.1,0-0.2,0-0.2c0-0.3,0.1-0.5,0.4-0.7c0.3-0.3,0.6-0.5,1-0.7
		c0.1,0,0.2-0.1,0.2-0.2c0-0.1,0-0.2-0.1-0.3c-0.1,0-0.1-0.1,0-0.2c0.3-0.3,0.6-0.5,0.9-0.8c0,0.1,0,0.2,0,0.3c0,0.9,0,1.8,0,2.7
		c0,0.2,0,0.2,0.2,0.2c0.6,0,1.3,0,1.9,0c0.2,0,0.2,0,0.2-0.2s0-0.4,0-0.5s0-0.2-0.1-0.3c-0.1,0-0.1-0.1,0-0.2l0,0
		c0.2-0.2,0.5-0.4,0.9-0.6c0,0.9,0,1.7,0,2.5C49.3,37.2,47.5,37.2,45.6,37.2z M47.2,35.5C47.1,35.5,47.1,35.5,47.2,35.5
		c-0.2,0.2-0.4,0.2-0.5,0.3c-0.2,0.1-0.3,0.4-0.3,0.6c0,0.1,0,0.1,0.1,0.1c0.2,0,0.4,0,0.6,0c0.1,0,0.1,0,0.1-0.1
		C47.2,36.1,47.2,35.8,47.2,35.5z"/>
	<path class="st0" d="M25.9,35c0.5,0.8,1,1.5,1.6,2.2c0,0.1-0.1,0.1-0.2,0c-0.3,0-0.5,0-0.8,0c-0.1,0-0.2,0-0.3-0.2
		c-0.4-0.6-0.8-1.2-1.2-1.8c-0.1-0.1-0.1-0.2-0.2-0.2s-0.1,0.2-0.1,0.3c0,0.5,0,1.1,0,1.6c0,0.2,0,0.2-0.2,0.2s-0.4,0-0.6,0
		s-0.2,0-0.2-0.2c0-0.5,0-1,0-1.5c0-0.9,0-1.8,0-2.7c0-0.1,0-0.2,0.1-0.1c0.5,0.1,0.9,0,1.4,0c0.2,0,0.5,0,0.7,0
		c0.5,0.1,0.8,0.3,0.9,0.8c0.1,0.4-0.1,0.9-0.4,1.2C26.4,34.9,26.1,35,25.9,35z M24.8,33.9L24.8,33.9c0,0.2,0,0.5,0,0.7
		c0,0.1,0,0.1,0.1,0.1c0.2,0,0.3,0,0.5,0c0.3,0,0.5-0.2,0.6-0.4s0.1-0.4,0.1-0.6c0-0.3-0.2-0.5-0.5-0.6c-0.2-0.1-0.4,0-0.6,0
		s-0.2,0-0.2,0.2C24.8,33.5,24.8,33.7,24.8,33.9z"/>
	<path class="st0" d="M37.7,37.2c-0.3,0-0.6,0-0.9,0c-0.1,0-0.1-0.1-0.1-0.1c-0.1-0.3-0.2-0.6-0.4-0.9v-0.1c0-0.2-0.2-0.2-0.3-0.2
		c-0.4,0-0.8,0-1.2,0c-0.2,0-0.2,0.1-0.3,0.2c-0.1,0.3-0.3,0.7-0.4,1c0,0.1-0.1,0.2-0.2,0.2c-0.1,0-0.3,0-0.4,0
		c0-0.2,0.1-0.3,0.2-0.4c0.5-1,0.9-2,1.4-3c0.1-0.3,0.3-0.6,0.4-1c0-0.1,0.1-0.1,0.2-0.1c0.3,0,0.3,0,0.4,0.3c0.5,1.4,1.1,2.7,1.7,4
		C37.7,37,37.7,37.1,37.7,37.2z M35.4,33.8c-0.2,0.5-0.4,1-0.7,1.6c0.4,0.1,0.8,0.1,1.3,0C35.8,34.9,35.6,34.4,35.4,33.8z"/>
	<path class="st0" d="M21.3,37.2c-0.3,0-0.6,0-0.9,0c-0.1,0-0.1-0.1-0.2-0.2c-0.1-0.4-0.3-0.7-0.4-1.1c-0.1-0.1-0.1-0.2-0.3-0.2
		c-0.4,0-0.8,0-1.2,0c-0.1,0-0.2,0.1-0.3,0.2c-0.1,0.3-0.3,0.7-0.4,1c-0.1,0.2-0.1,0.2-0.3,0.2c-0.1,0-0.3,0-0.4,0
		c0-0.1,0-0.1,0.1-0.2c0.5-1.2,1.1-2.4,1.6-3.6c0.1-0.2,0.2-0.4,0.2-0.6c0-0.1,0.1-0.1,0.2-0.1c0.3,0,0.3,0,0.4,0.3
		c0.5,1.3,1.1,2.6,1.6,3.8C21.2,36.9,21.3,37.1,21.3,37.2z M18.9,33.8c-0.2,0.6-0.4,1.1-0.7,1.6c0.4,0,0.8,0.1,1.3,0
		C19.3,34.9,19.1,34.4,18.9,33.8z"/>
	<path class="st0" d="M42.7,37.3c-0.4,0-0.8-0.1-1.1-0.2c-0.1-0.1-0.2-0.1-0.1-0.2c0.1-0.2,0.1-0.3,0.1-0.5v-0.1c0,0,0.1,0,0.1,0.1
		s0.1,0.2,0.1,0.2c0.3,0.5,0.8,0.5,1.2,0.4c0.3-0.1,0.5-0.3,0.5-0.7c0-0.3-0.1-0.6-0.3-0.7c-0.2-0.1-0.4-0.2-0.5-0.2
		c-0.2-0.1-0.4-0.2-0.6-0.3c-0.4-0.2-0.6-0.6-0.6-1.1s0.2-0.9,0.7-1.1c0.6-0.3,1.3-0.2,1.9,0c0.1,0,0.1,0.1,0.1,0.2
		C44,33.2,44,33.3,44,33.5c0,0,0,0.1-0.1,0.1s-0.1-0.1-0.1-0.1c-0.3-0.4-0.7-0.6-1.2-0.4c-0.2,0.1-0.4,0.3-0.4,0.5
		c0,0.3,0,0.5,0.3,0.7c0.2,0.1,0.3,0.2,0.5,0.2c0.2,0.1,0.4,0.1,0.6,0.2c0.5,0.2,0.8,0.6,0.8,1.1c0,0.6-0.2,1-0.7,1.3
		C43.3,37.3,43,37.4,42.7,37.3z"/>
	<path class="st0" d="M41.2,32.8c-0.1,0.1-0.1,0.3-0.2,0.4c-0.5,0.7-0.9,1.4-1.3,2.1c-0.1,0.1-0.1,0.3-0.1,0.4c0,0.5,0,0.9,0,1.4
		c0,0.2,0,0.2-0.2,0.2s-0.3,0-0.5,0s-0.2,0-0.2-0.2c0-0.4,0-0.9,0-1.3c0-0.2,0-0.3-0.1-0.5c-0.4-0.8-0.9-1.5-1.4-2.3
		c0-0.1-0.1-0.1-0.1-0.2c0-0.1,0.1,0,0.2,0c0.2,0,0.5,0,0.7,0s0.2,0,0.3,0.2c0.3,0.6,0.6,1.1,0.9,1.7c0.1,0.1,0.1,0.2,0.2,0.3
		c0.1,0,0.1-0.1,0.1-0.2c0.3-0.6,0.6-1.1,0.9-1.7c0.1-0.2,0.1-0.2,0.4-0.2C40.9,32.8,41,32.8,41.2,32.8z"/>
	<path class="st0" d="M21.9,32.7c0.3,0,0.5,0.1,0.8,0c0.1,0,0.1,0,0.1,0.1c0,0.4-0.1,0.9-0.1,1.3c0,0.7,0,1.4,0,2.1
		c0,0.3,0,0.5,0,0.8c0,0.1,0,0.2-0.1,0.1c-0.2,0-0.4,0-0.7,0c-0.1,0-0.1,0-0.1-0.1c0-0.6,0.1-1.2,0.1-1.8c0-0.8,0-1.6,0-2.3
		C21.8,32.9,21.8,32.8,21.9,32.7z"/>
	<path class="st0" d="M66.5,32.9c0,0.1,0,0.2,0,0.2c0,1.3,0,2.6,0,3.8V37c0,0.1,0,0.1-0.1,0.1c-0.2,0-0.4,0-0.6,0
		c-0.1,0-0.1,0-0.1-0.1s0-0.1,0-0.2c0-1,0-1.9,0-2.9c0-0.1,0-0.3-0.1-0.3s0-0.1,0-0.1l0.1-0.1C66,33.3,66.2,33.1,66.5,32.9z"/>
	<path class="st0" d="M61.7,33.4c-0.3,0-0.5-0.2-0.4-0.5c0-0.1,0.1-0.2,0.2-0.2c0.2,0,0.3,0,0.4,0c0.1,0.1,0.2,0.2,0.2,0.3
		s-0.1,0.2-0.2,0.3C61.9,33.4,61.8,33.4,61.7,33.4z"/>
	<path class="st0" d="M62.7,33.4c-0.3,0-0.4-0.1-0.4-0.4c0-0.2,0.1-0.2,0.2-0.3c0.1,0,0.3,0,0.4,0c0.1,0,0.2,0.2,0.2,0.3
		s-0.1,0.2-0.2,0.3C62.9,33.4,62.8,33.4,62.7,33.4z"/>
	<path class="st0" d="M46.3,33.5c-0.4,0-0.5-0.2-0.4-0.4c0-0.1,0.1-0.2,0.2-0.2c0.1,0,0.2,0,0.3,0c0.2,0,0.3,0.2,0.3,0.3
		C46.7,33.4,46.6,33.5,46.3,33.5C46.4,33.5,46.3,33.5,46.3,33.5z"/>
	<path class="st0" d="M47.3,33.5c-0.4,0-0.5-0.2-0.4-0.5c0-0.1,0.1-0.2,0.2-0.2c0.1,0,0.2,0,0.3,0c0.2,0,0.3,0.1,0.3,0.3
		s-0.1,0.3-0.3,0.3C47.3,33.5,47.3,33.5,47.3,33.5z"/>
	<path class="st0" d="M49.8,38.2c-0.3,0-0.5-0.2-0.4-0.5l0,0c0.1-0.1,0.3-0.2,0.5-0.1c0.2,0,0.3,0.1,0.3,0.3c0,0.1,0,0.2-0.2,0.3
		C50,38.2,49.9,38.2,49.8,38.2z"/>
	<path class="st0" d="M48.7,37.5c0.3,0,0.5,0.1,0.5,0.4c0,0.1-0.1,0.2-0.1,0.2c-0.2,0.1-0.4,0.1-0.5,0c-0.1,0-0.2-0.2-0.2-0.3
		C48.4,37.6,48.5,37.5,48.7,37.5C48.7,37.5,48.7,37.5,48.7,37.5z"/>
	<g>
		<path class="st0" d="M84.3,15.6c-0.2,0.1-0.4,0.1-0.6,0.1c-1.4,0.1-2.8,0.1-4.2,0.2c-0.9,0-1.9,0-2.8,0c-0.2,0-0.4,0-0.5-0.1
			c-0.1,0-0.2-0.1-0.2-0.2c0-0.1,0.1-0.2,0.2-0.2c0.2-0.1,0.3-0.1,0.5-0.1c0.8,0,1.5,0,2.3,0c1.2,0,2.3,0.1,3.5,0.1
			C83.1,15.5,83.7,15.5,84.3,15.6L84.3,15.6z"/>
		<g>
			<path class="st0" d="M74,29.7c0.3-0.1,0.6-0.3,0.8-0.5c0.1-0.1,0.1-0.2,0.1-0.4c-0.1,0-0.1,0.1-0.2,0.1c-0.2,0.1-0.4,0.3-0.6,0.4
				s-0.4,0.1-0.6-0.1c-0.1-0.1-0.1-0.2-0.1-0.3c0.2-0.4,0.5-0.7,0.7-1.1c0-0.1,0.1-0.1,0.1-0.2c0.2-0.2,0.4-0.5,0.6-0.8
				c0.2-0.2,0.4-0.5,0.6-0.7s0.4-0.4,0.5-0.6c0.3-0.3,0.5-0.6,0.8-0.9c0.2-0.2,0.4-0.4,0.6-0.7c0.2-0.2,0.4-0.4,0.5-0.6
				c0.2-0.1,0.4-0.3,0.6-0.5s0.4-0.3,0.6-0.5c0,0,0.1,0,0.1-0.1c0.4-0.3,0.8-0.7,1.2-1c0.4-0.4,0.9-0.7,1.3-1.1l0.1-0.1h0.1
				c0.4-0.3,0.7-0.6,1.1-0.8c0.7-0.5,1.4-1,2.2-1.5c0.2-0.1,0.4-0.3,0.6-0.4s0.4-0.2,0.6-0.4c2-1.3,4-2.4,6.1-3.5
				c1.3-0.6,2.6-1.2,3.9-1.7c0.1,0,0.2-0.1,0.3-0.1c0.2,0,0.3,0,0.3,0.1s0,0.2-0.1,0.3c-0.1,0-0.1,0.1-0.2,0.1c-2,0.9-3.9,1.9-5.7,3
				c-1.1,0.7-2.2,1.3-3.3,2c-0.1,0.1-0.2,0.1-0.3,0.2c-1.7,0.8-3.3,1.9-4.9,2.9c-0.1,0.1-0.2,0.1-0.1,0.2s0.2,0,0.3,0
				c1.4-0.9,2.8-1.7,4.3-2.4c2.6-1.3,5.4-2.3,8.1-3.2c0.9-0.3,1.7-0.5,2.6-0.8c0.1,0,0.2-0.1,0.3-0.1c0.2,0,0.3,0,0.3,0.2
				c0,0.1,0,0.2-0.2,0.3c-0.1,0.1-0.2,0.1-0.4,0.1c-2.5,0.9-5,1.9-7.5,3c-1.1,0.5-2.1,1-3.2,1.6c-0.4,0.2-0.7,0.4-1.1,0.6
				c-0.5,0.3-1.1,0.6-1.6,1c-0.1,0.1-0.2,0.2-0.3,0.3c0,0.1,0,0.2,0.1,0.2s0.2,0,0.3,0c1.3,0,2.6,0.1,3.8,0.2c0.1,0,0.1,0,0.2,0l0,0
				c-0.1,0.2-0.3,0.3-0.4,0.5c-0.6,0.4-1.2,0.6-1.9,0.6c-0.2,0-0.4,0-0.6,0c-0.1,0-0.2,0-0.2,0.1c-0.1,0.1,0,0.2,0,0.2
				c0.2,0.2,0.4,0.4,0.6,0.6c0.3,0.3,0.7,0.5,1.1,0.8c1.2,0.7,2.6,1,4,1.2c0.1,0,0.2,0,0.3,0c0.3,0,0.3,0,0.3,0.3c0,0.2,0,0.4,0,0.5
				c0,0.2,0,0.2-0.2,0.2c-0.4,0-0.8,0-1.2,0.1c-1,0-2,0.1-3,0.2c-0.6,0-1.2,0.1-1.8,0.2c-0.1,0-0.2,0-0.3,0.1
				c0.1,0.1,0.2,0.1,0.3,0.1c0.6,0.1,1.3,0.2,1.9,0.2c1.4,0.1,2.7,0.2,4.1,0.2c0,0,0,0,0.1,0c0,0.1,0,0.2,0,0.3
				c0,0.1-0.1,0.2-0.1,0.4c-0.1,0.5-0.1,0.5-0.6,0.5c-1.3,0-2.6,0.1-4,0.2c-0.5,0-1.1,0.1-1.6,0.2c-0.1,0-0.2,0-0.3,0.1
				c0,0.1,0.1,0.1,0.2,0.1c0.3,0.1,0.6,0.1,0.9,0.1c1,0.1,2.1,0.2,3.2,0.2c0.5,0,0.9,0,1.4,0.1c0.1,0,0.1,0,0.2,0
				c-0.1,0.4-0.3,0.7-0.4,1.1c0,0.1-0.1,0.1-0.2,0.1c-0.3,0-0.7,0-1,0.1c-0.8,0-1.6,0.1-2.4,0.2c-0.4,0-0.7,0.1-1.1,0.1
				c-0.1,0-0.2,0-0.2,0.1c0.1,0.1,0.2,0.1,0.3,0.1c0.6,0.1,1.1,0.2,1.7,0.2c0.8,0.1,1.6,0.1,2.4,0.2c0,0.1,0,0.1,0,0.2
				c-0.2,0.4-0.5,0.7-0.7,1c-0.1,0.1-0.2,0.1-0.3,0.1c-0.7,0.1-1.4,0.1-2.1,0.2c-0.1,0-0.2,0-0.2,0.1c0,0,0,0-0.1,0.1
				c0.3,0.2,0.6,0.2,0.9,0.2s0.6,0.1,1,0.1c-0.2,0.2-0.4,0.4-0.7,0.6c-0.5,0.4-0.9,0.7-1.4,1c-0.1,0.1-0.2,0.1-0.3,0
				c-0.2-0.2-0.5-0.5-0.8-0.7c-0.2-0.1-0.3-0.3-0.5-0.4c0,0,0,0,0-0.1c-0.4-0.5-0.8-0.9-1.2-1.4c0,0,0,0-0.1-0.1
				c-0.2-0.3-0.4-0.5-0.6-0.8c-0.3-0.4-0.6-0.8-0.9-1.2c-0.2-0.3-0.4-0.7-0.7-1c-0.3-0.6-0.6-0.7-1.2-0.5c-0.4,0.1-0.8,0.2-1.3,0.3
				c-0.1,0-0.2,0.1-0.3,0c0-0.1,0.1-0.1,0.2-0.2c0.6-0.3,1.2-0.6,1.6-1.1c0.6-0.6,1-1.2,1.1-2c0.1-0.6,0.1-1.2,0-1.8
				c0-0.3-0.1-0.6-0.2-0.9c-0.2,0.6-0.4,1.1-0.9,1.5c0.1-0.5,0.1-1,0-1.4c-0.1-0.5-0.3-1-0.6-1.2c-0.1,0.4-0.2,0.7-0.2,1.1
				c0,0.1-0.1,0.2-0.2,0.2c-0.2,0.1-0.4,0.2-0.6,0.4c-0.3,0.2-0.4,0.5-0.5,0.9c0.1,0,0.3,0,0.4,0s0.2-0.1,0.4-0.2V25
				c-0.3,1-0.7,2.1-1.1,3c-0.3,0.6-0.6,1.2-1,1.7c-0.2,0.2-0.3,0.4-0.5,0.5c-0.3,0.2-0.6,0.4-0.9,0.6c-0.3,0.1-0.6,0.1-0.8-0.2
				c-0.1-0.1-0.2-0.2-0.3-0.3C74.4,30.1,74.1,29.9,74,29.7z"/>
			<path class="st0" d="M82.8,32c0.2,0.3,0.4,0.5,0.6,0.8c-0.3,0.1-0.7,0-1,0c-1.1,0-2.2,0-3.2,0.1c-1,0-1.9,0-2.9,0
				c-1.3,0-2.6,0-3.9,0c-0.4,0-0.7,0-1-0.2c-0.1,0-0.3-0.1-0.4-0.2c-0.1-0.1-0.1-0.3,0-0.4c0.1-0.1,0.2-0.1,0.3-0.2
				c0.3-0.1,0.6-0.2,0.9-0.2c1.4,0,2.7,0,4.1,0c0.7,0,1.5,0,2.2,0c1.4,0,2.8,0.1,4.2,0.1C82.7,32,82.8,32.1,82.8,32z"/>
			<path class="st0" d="M80.2,21.2c-0.4,0.3-0.8,0.7-1.2,1c0,0-0.1,0-0.1,0.1c-1.2,0-2.4,0-3.6,0.1c-1.3,0-2.6,0-3.9,0
				c-0.4,0-0.8,0-1.1-0.2c-0.2-0.1-0.3-0.1-0.5-0.3c-0.1-0.1-0.1-0.3,0-0.4s0.3-0.2,0.5-0.3c0.4-0.1,0.7-0.2,1.1-0.2
				c1.3,0,2.7,0,4,0c0.8,0,1.6,0,2.4,0C78.6,21.1,79.4,21.1,80.2,21.2z"/>
			<path class="st0" d="M82.9,19.1c-0.4,0.3-0.7,0.6-1.1,0.8c0,0,0,0-0.1,0s-0.1,0-0.2,0c-1.5,0-3.1,0-4.6,0.1c-1.5,0-2.9,0-4.4,0
				c-0.4,0-0.7,0-1.1-0.2c-0.1,0-0.2-0.1-0.3-0.1c-0.2-0.2-0.2-0.4,0-0.5c0.1-0.1,0.3-0.2,0.5-0.2c0.2,0,0.4,0,0.7,0
				c1.1,0,2.2,0,3.2,0c0.9,0,1.7,0,2.6,0c1.5,0,2.9,0.1,4.4,0.1C82.6,19.1,82.7,19.1,82.9,19.1z"/>
			<path class="st0" d="M81.3,29.8c0.3,0.3,0.5,0.6,0.7,1c-1.1,0-2.1,0-3.2,0.1c-1.1,0-2.3,0.1-3.4,0.1c-1.4,0-2.8,0-4.2,0
				c-0.3,0-0.7-0.1-1-0.2c-0.1,0-0.2-0.1-0.3-0.2c-0.2-0.2-0.2-0.4,0-0.5c0.1-0.1,0.2-0.2,0.4-0.2c0.3-0.1,0.7-0.2,1-0.2
				c0.9,0,1.8,0,2.7,0c0.2,0.3,0.4,0.5,0.6,0.7c0.1,0.1,0.2,0.2,0.3,0.3c0.2,0.3,0.5,0.3,0.8,0.2c0.3-0.1,0.6-0.3,0.9-0.6
				c0.2-0.2,0.3-0.4,0.5-0.5c0.2,0,0.5,0,0.7,0C78.9,29.7,80.1,29.8,81.3,29.8z"/>
			<path class="st0" d="M77.9,23.3c-0.2,0.2-0.4,0.4-0.5,0.6c-0.2,0.2-0.4,0.4-0.6,0.7c-0.2-0.1-0.4,0-0.6,0c-0.9,0-1.7,0-2.6,0
				c-0.7,0-1.5,0-2.2,0c-0.4,0-0.9,0-1.3-0.1c-0.2,0-0.4-0.1-0.6-0.2c-0.1,0-0.1-0.1-0.2-0.1c-0.2-0.2-0.2-0.4,0-0.6
				c0.2-0.1,0.4-0.2,0.6-0.3c0.3-0.1,0.6-0.1,0.8-0.1c1.4,0,2.9,0,4.3,0c0.9,0,1.8,0,2.7,0C77.7,23.2,77.8,23.2,77.9,23.3z"/>
			<path class="st0" d="M85.6,17.2c-0.2,0.2-0.4,0.3-0.6,0.4c-0.2-0.1-0.4,0-0.6,0s-0.3,0-0.5,0c-0.9,0-1.9,0-2.8,0.1
				c-0.9,0-1.7,0-2.6,0.1c-1.5,0.1-3,0-4.5,0c-0.3,0-0.6,0-0.8-0.1c-0.1-0.1-0.3-0.1-0.3-0.3c0-0.2,0.2-0.3,0.3-0.3
				c0.2-0.1,0.4-0.1,0.6-0.1c1.2,0,2.5,0,3.7,0c0.8,0,1.6,0,2.4,0c1.2,0,2.5,0,3.7,0.1C84.3,17.1,85,17.1,85.6,17.2z"/>
			<path class="st0" d="M84.7,34.3c0.2,0.1,0.3,0.3,0.5,0.4c-0.8,0-1.6,0-2.4,0.1c-1.6,0.1-3.2,0.1-4.8,0.1c-1.3,0-2.5,0-3.8,0
				c-0.3,0-0.6,0-0.9-0.2c-0.1-0.1-0.3-0.1-0.3-0.3s0.1-0.2,0.3-0.3C73.5,34,73.8,34,74,34c0.9,0,1.8,0,2.8,0c1.2,0,2.5,0,3.7,0.1
				c1.2,0,2.4,0.1,3.6,0.1C84.2,34.3,84.4,34.3,84.7,34.3z"/>
			<path class="st0" d="M75.9,25.4c-0.1,0.2-0.3,0.4-0.5,0.6s-0.3,0.5-0.6,0.7h-0.1c-1.4,0-2.8,0-4.2,0c-0.4,0-0.7-0.1-1-0.2
				c-0.2,0-0.3-0.1-0.5-0.2c-0.3-0.2-0.3-0.4,0-0.6s0.6-0.3,0.9-0.3s0.5-0.1,0.8-0.1c1.1,0,2.2,0,3.2,0c0.6,0,1.2,0,1.7,0
				C75.8,25.3,75.8,25.4,75.9,25.4z"/>
			<path class="st0" d="M74.2,27.5c0,0.1-0.1,0.1-0.1,0.2c-0.2,0.4-0.5,0.7-0.7,1.1c-0.1-0.1-0.2,0-0.3,0c-0.9,0-1.7,0-2.6,0
				c-0.3,0-0.7-0.1-1-0.2c-0.1,0-0.2-0.1-0.3-0.2c-0.2-0.2-0.2-0.3,0-0.5c0.1-0.1,0.2-0.2,0.3-0.2c0.3-0.1,0.7-0.2,1-0.2
				c1,0,2,0,3,0C73.8,27.5,74,27.5,74.2,27.5z"/>
			<path class="st0" d="M84.4,36.3c-0.3,0.1-0.6,0.1-1,0.1c-2,0.1-4,0.2-5.9,0.2c-0.3,0-0.6,0-0.9,0c-0.1,0-0.2-0.1-0.3-0.1
				c-0.2-0.1-0.2-0.2,0-0.3c0.1-0.1,0.3-0.1,0.5-0.1c0.8,0,1.5,0,2.3,0c0.2,0,0.3,0,0.5,0c1.2,0,2.5,0.1,3.7,0.1
				C83.7,36.2,84,36.3,84.4,36.3C84.2,36.2,84.3,36.2,84.4,36.3z"/>
			<path class="st0" d="M87.1,24.2c-0.4-0.2-0.8-0.5-1.1-0.8c0.5,0,0.9,0,1.4,0s1,0.1,1.5,0.1c0.7,0,1.4,0.1,2.2,0.2
				c0.1,0,0.2,0,0.4,0.1c-0.1,0.1-0.2,0.1-0.3,0.1C90.6,24,90.1,24,89.5,24c-0.7,0-1.4,0.1-2.1,0.1C87.2,24.2,87.1,24.2,87.1,24.2z"
				/>
			<path class="st0" d="M85.9,19.8c0.3-0.2,0.7-0.4,1.1-0.6c0,0.1,0.1,0.1,0.2,0.1c0.7,0.1,1.3,0.1,2,0.1c0.1,0,0.3,0,0.4,0.1
				c0,0.1-0.1,0.1-0.1,0.1C88.2,19.7,87,19.8,85.9,19.8z"/>
			<path class="st0" d="M88,21.9c0.1-0.2,0.3-0.3,0.4-0.5c0.8,0,1.5,0.1,2.3,0.2c-0.1,0.1-0.1,0.1-0.2,0.1c-0.5,0.1-1.1,0.1-1.6,0.1
				C88.6,21.9,88.3,21.9,88,21.9z"/>
			<path class="st0" d="M88.4,21.4c-0.1,0-0.1,0-0.2,0C88.3,21.4,88.4,21.4,88.4,21.4z"/>
		</g>
	</g>
</g>
</svg>
