<?xml version="1.0" encoding="utf-8"?>
<!-- Generator: Adobe Illustrator 27.1.1, SVG Export Plug-In . SVG Version: 6.00 Build 0)  -->
<svg version="1.1" id="Layer_1" xmlns="http://www.w3.org/2000/svg" xmlns:xlink="http://www.w3.org/1999/xlink" x="0px" y="0px"
	 viewBox="0 0 200 200" style="enable-background:new 0 0 200 200;" xml:space="preserve">
<style type="text/css">
	.st0{fill:#FFFFFF;}
</style>
<g>
	<g>
		<path class="st0" d="M196.4,197c-64.4,0-128.7,0-193.1,0c0-0.5,0-0.9,0-1.4c0-62.8,0-125.5,0-188.3c0-0.5,0.2-1-0.2-1.4
			c0-1-0.4-2.4,0.1-2.8S5.1,3,6,3c63.2,0,126.4,0,189.6,0c1,0,1.4,0.2,1.2,1.3c-0.1,0.6,0,1.1,0,1.7c-0.4,0.5-0.2,1.2-0.2,1.8
			c0,62.4,0,124.9,0,187.3C196.7,195.8,196.8,196.4,196.4,197z M26,24.9c-0.1,0-0.2,0-0.3,0c-0.7-0.1-1,0.2-0.9,0.9
			c0.1,1.1,0.2,2.3,0.2,3.4c0,23,0,46,0,69c0,24.9,0,49.7,0,74.6c0,2.8-0.6,2.7,2.4,2.6c0.1,0,0.2-0.1,0.3-0.1
			c48.9,0,97.8,0,146.7,0c0.2,0.1,0.4,0.1,0.5-0.2c0-0.2,0.1-0.5,0.1-0.7c0.2-0.5,0.1-1.1,0.1-1.6c0-48.5,0-97,0-145.5
			c0-0.5,0.1-1-0.1-1.5c0-0.1,0-0.3,0-0.4c0.1-0.2,0.2-0.4-0.1-0.5c-2-0.3-4-0.2-6-0.2C121.3,24.9,73.7,24.9,26,24.9z"/>
		<path class="st0" d="M196.4,197c0.4-0.6,0.3-1.3,0.3-1.9c0-62.4,0-124.9,0-187.3c0-0.6-0.2-1.2,0.2-1.8c0,63.3,0,126.6,0,189.9
			C196.9,196.2,197.5,197.1,196.4,197z"/>
		<path class="st0" d="M175.1,174.4c0-0.5-0.1-1.1-0.1-1.6c0-48.4,0-96.8,0-145.2c0-0.6,0.1-1.1,0.1-1.7c0.2,0.5,0.1,1,0.1,1.5
			c0,48.5,0,97,0,145.5C175.2,173.4,175.3,173.9,175.1,174.4z"/>
		<path class="st0" d="M175.1,25.6c0-0.2-0.1-0.3-0.1-0.5C175.3,25.2,175.2,25.3,175.1,25.6z"/>
		<path class="st0" d="M174.5,175.3c0.2-0.1,0.4-0.1,0.5-0.2C174.9,175.4,174.7,175.4,174.5,175.3z"/>
		<path class="st0" d="M26,24.9c-0.1,0.1-0.2,0.1-0.3,0C25.8,24.9,25.9,24.9,26,24.9z"/>
		<path class="st0" d="M27.4,175.3c0.1-0.1,0.2-0.2,0.3-0.1C27.6,175.3,27.5,175.3,27.4,175.3z"/>
		<path class="st0" d="M93.9,129.9c1.8,0,3.6,0.2,5.3-0.1c4.1-0.6,8-2,11.6-4.2c1.8-1.1,3.5-2.3,4.9-3.8c0.7-0.7,1-0.1,1.4,0.2
			c3.2,3.2,6.4,6.4,9.6,9.7c1.4,1.4,2.8,2.9,4.3,4.2c0.6,0.6,0.6,0.9,0,1.5c-5.3,5-11.4,8.8-18.2,11.4c-3.9,1.4-7.9,2.2-11.9,2.8
			c-3.4,0.4-6.7,0.3-10,0.1c-3.9-0.2-7.8-1.1-11.5-2.5c-2.5-0.9-5.1-1.8-7.5-3.1c-6-3.2-11.1-7.4-15.5-12.5
			c-2.9-3.4-5.4-7.2-7.3-11.3c-2-4.3-3.5-8.8-4.3-13.6c-0.5-3-0.5-6.1-0.6-9.1c0-0.3,0-0.7,0-1c-0.6-1,0-1.9,0.1-2.8
			c0.3-3.2,0.9-6.3,1.7-9.4c0.8-3,2.1-5.8,3.3-8.6c0.8-1.8,1.9-3.6,3-5.3c3.1-4.7,6.9-8.9,11.3-12.4c5.8-4.5,12.1-7.9,19.3-9.5
			c5-1.2,10.1-1.9,15.2-1.5c0.4,0.5,1,0.2,1.5,0.2c3.5,0.1,6.9,0.7,10.3,1.7c6.8,2.1,13,5.3,18.5,9.9c0.9,0.8,1.7,1.6,2.6,2.3
			c0.6,0.5,0.7,0.9,0.1,1.5c-2.4,2.4-4.8,4.8-7.2,7.2c-1.4,1.4-2.8,2.8-4.1,4.3c-0.9,1-1.8,1.8-2.8,2.7c-0.4,0.3-0.7,0.4-1.2,0
			c-4-3.7-8.6-6.2-13.8-7.3c-3.1-0.7-6.2-1.1-9.4-0.6c-0.3-0.1-0.5-0.1-0.5,0.2c-6.9,0.5-12.5,3.6-17.3,8.3c-4.2,4.1-7,9.1-8.1,14.9
			c-0.9,4.7-0.9,9.4,0.5,14c1.2,4.1,3.2,7.7,5.9,11c4.8,5.7,10.9,9,18.2,10.4C92.1,130,93,129.9,93.9,129.9
			C93.7,129.9,93.8,129.9,93.9,129.9z"/>
		<path class="st0" d="M151.4,100.5c-0.1,7.6-5.9,12.9-12.7,12.9c-7.9,0.1-13.2-6.3-13.3-12.8c-0.1-7.4,5.9-13.3,13.2-13.2
			C145.9,87.6,151.4,93.3,151.4,100.5z"/>
		<path class="st0" d="M99.5,49.3c-0.5,0-1.1,0.3-1.5-0.2C98.6,48.8,99.1,48.8,99.5,49.3z"/>
		<path class="st0" d="M91.8,71.2c0.1-0.3,0.3-0.3,0.5-0.2C92.2,71.1,92,71.1,91.8,71.2z"/>
		<path class="st0" d="M44.2,98.6c0,0.3,0,0.7,0,1C43.9,99.3,43.9,98.9,44.2,98.6z"/>
	</g>
</g>
</svg>
