<?xml version="1.0" encoding="utf-8"?>
<!-- Generator: Adobe Illustrator 27.0.0, SVG Export Plug-In . SVG Version: 6.00 Build 0)  -->
<svg version="1.1" id="Layer_1" xmlns="http://www.w3.org/2000/svg" xmlns:xlink="http://www.w3.org/1999/xlink" x="0px" y="0px"
	 viewBox="0 0 100 50" style="enable-background:new 0 0 100 50;" xml:space="preserve">
<style type="text/css">
	.st0{fill:#828282;}
</style>
<g>
	<path class="st0" d="M51.7,30.9c-0.8,0.1-1.7,0.1-2.5,0c0-0.1,0-0.2,0-0.3c0-1.6,0.1-3.3,0.1-4.9c0-2.4,0.1-4.8,0.1-7.2
		c0-1.9,0-3.9,0-5.8c0-0.7,0-1.3,0-2c0-0.2,0-0.5,0-0.7c0-0.5-0.2-0.8-0.7-1C48.2,9,47.7,8.9,47.3,9C45.6,9,44,9.1,42.4,9.3
		c-1.2,0.1-2.3,0.2-3.5,0.4c-1.2,0.1-2.4,0.3-3.5,0.5c-1.7,0.3-3.4,0.6-5.1,0.9c-0.3,0.1-0.7,0.1-1,0.2c-0.1,0-0.2,0-0.3,0.1
		c0.1-0.2,0.2-0.4,0.3-0.5c0.8-1.3,1.9-2.5,3.1-3.5c1.9-1.6,4.1-2.8,6.5-3.7c1.2-0.5,2.5-0.9,3.8-1.2c1.4-0.3,2.9-0.6,4.3-0.7
		c1.3-0.1,2.6-0.2,4-0.2c1.4,0,2.9,0.1,4.3,0.3c1.8,0.3,3.6,0.7,5.3,1.2c2.2,0.7,4.4,1.7,6.3,3C68.1,7,69.3,8,70.3,9.2
		c0.5,0.6,1,1.2,1.3,1.9c0,0,0,0.1,0.1,0.1c-0.4-0.1-0.7-0.1-1-0.2c-1.7-0.3-3.3-0.6-5-0.9c-1-0.2-2.1-0.3-3.1-0.5
		c-0.8-0.1-1.6-0.2-2.5-0.3c-1-0.1-2-0.2-3-0.3C55.9,9.1,54.7,9,53.5,9c-0.4,0-0.8,0-1.2,0.2c-0.5,0.2-0.8,0.5-0.8,1.1
		c0,0.2,0,0.5,0,0.7c-0.1,3.3-0.1,6.6-0.1,9.9c0,2.1,0.1,4.1,0.1,6.2c0,1.2,0.1,2.3,0.1,3.5C51.7,30.6,51.7,30.7,51.7,30.9z"/>
	<path class="st0" d="M43,30.1c-0.5-0.1-0.9-0.2-1.3-0.3c-1.9-0.5-3.7-1.2-5.4-2c-2.1-1.1-4.1-2.4-5.7-4.2c-1.1-1.3-2-2.7-2.5-4.3
		c-0.5-1.5-0.6-3-0.3-4.5c0.1-0.3,0.1-0.7,0.2-1c0-0.1,0.1-0.2,0.3-0.2c0.9-0.1,1.7-0.3,2.6-0.5c1.3-0.2,2.6-0.4,3.8-0.6
		c0.8-0.1,1.6-0.2,2.4-0.3c1.7-0.2,3.5-0.3,5.2-0.3c0.8,0,1.6,0,2.4,0c0.4,0,0.7,0.1,1,0.2c0.6,0.2,0.9,0.6,1,1.2
		c0.1,0.5,0.1,1,0,1.5c-0.2,1.2-0.5,2.4-0.7,3.6c-0.3,1.2-0.5,2.5-0.8,3.7c-0.4,1.8-0.9,3.6-1.3,5.3c-0.2,0.9-0.4,1.7-0.7,2.6
		C43.1,30,43,30,43,30.1z"/>
	<path class="st0" d="M57.9,30.1c-0.1-0.2-0.1-0.4-0.2-0.6c-0.4-1.5-0.8-3-1.2-4.5c-0.5-1.8-0.8-3.6-1.2-5.4
		c-0.2-1.1-0.4-2.2-0.7-3.3c-0.1-0.6-0.2-1.3-0.4-1.9c-0.1-0.4,0-0.8,0.1-1.2c0.2-0.6,0.5-1,1.1-1.1c0.3-0.1,0.6-0.2,1-0.2
		c0.5,0,1,0,1.5,0c0.6,0,1.2,0,1.8,0.1c1.7,0.1,3.3,0.2,5,0.4c1.6,0.2,3.2,0.4,4.8,0.7c1,0.2,1.9,0.4,2.9,0.6c0.2,0,0.2,0.1,0.3,0.3
		c0.3,1,0.4,2,0.4,3c-0.1,1.8-0.6,3.4-1.5,4.8c-0.8,1.3-1.8,2.4-2.9,3.4c-1.7,1.5-3.7,2.6-5.8,3.5c-1.5,0.7-3.1,1.2-4.8,1.6
		C58,30.1,58,30.1,57.9,30.1z"/>
	<path class="st0" d="M63.5,48.4c1.5-4.8,3-9.7,4.5-14.5c0.1,0,0.2,0,0.3,0c1.7,0,3.4,0,5,0c0,0,0.1,0,0.1,0c0.2,0,0.2,0,0.3,0.2
		c0.7,2.4,1.5,4.7,2.2,7.1c0.7,2.2,1.3,4.4,2,6.6c0.1,0.2,0.1,0.4,0.2,0.6c-1.6,0-3.1,0-4.6,0c-0.4-1.7-0.9-3.4-1.3-5.1
		c-0.4-1.7-0.9-3.4-1.3-5.1c0,0,0,0-0.1,0c0,0.1-0.1,0.2-0.1,0.2c-0.2,0.8-0.4,1.5-0.6,2.3c-0.4,1.7-0.9,3.3-1.3,5
		c-0.2,0.8-0.4,1.7-0.7,2.5c0,0,0,0.1,0,0.2C66.6,48.4,65.1,48.4,63.5,48.4z"/>
	<path class="st0" d="M45.4,48.4c-0.9-3.4-1.8-6.8-2.6-10.2c0,0,0,0-0.1,0c0,0.1-0.1,0.1-0.1,0.2c-0.2,0.6-0.3,1.1-0.5,1.7
		c-0.3,1-0.5,2.1-0.8,3.1c-0.4,1.5-0.8,3.1-1.2,4.6c-0.1,0.2-0.1,0.4-0.2,0.6c-1.5,0-3,0-4.6,0c1.5-4.8,3-9.6,4.5-14.5
		c0.1,0,0.2,0,0.3,0c1.7,0,3.4,0,5,0c0,0,0.1,0,0.1,0c0.2,0,0.2,0,0.3,0.2c0.5,1.7,1,3.4,1.6,5.1c0.4,1.4,0.9,2.9,1.3,4.3
		c0.5,1.6,1,3.1,1.4,4.7c0,0.1,0,0.1,0,0.2C48.5,48.4,47,48.4,45.4,48.4z"/>
	<path class="st0" d="M36.1,38.5c-1.6,0-3.2,0-4.8,0c0,0.6,0,1.1,0,1.7c0,0.5,0,1.1,0,1.6c0,0.6,0,1.1,0,1.7c0,0.6,0,1.1,0,1.7
		c0,0.5,0,1.1,0,1.6c0,0.6,0,1.1,0,1.6c-0.2,0.1-4.2,0.1-4.6,0c0-0.1,0-0.2,0-0.3c0-3.1,0-6.2,0-9.3c0-0.1,0-0.2,0-0.3
		c-1.6,0-3.1,0-4.7,0c0-1.5,0-3.1,0-4.6c0.2-0.1,13.9-0.1,14.2,0C36.1,34.1,36.2,38.1,36.1,38.5z"/>
	<path class="st0" d="M64.2,38.5c-1.6,0-3.2,0-4.8,0c0,0.1,0,0.2,0,0.3c0,2.2,0,4.4,0,6.6c0,0.9,0,1.8,0,2.7c0,0.1,0,0.2,0,0.3
		c-1.5,0-3,0-4.6,0c0-3.3,0-6.6,0-9.9c-0.5,0-1.1,0-1.6,0c-0.5,0-1,0-1.6,0c-0.5,0-1,0-1.5,0c0,0,0,0,0,0c0,0,0,0,0,0
		c0,0,0-0.1,0-0.1c0-1.4,0-2.9,0-4.3c0,0,0-0.1,0-0.1c4.7,0,9.4,0,14.1,0C64.3,34.1,64.3,38.2,64.2,38.5z"/>
</g>
</svg>
